<?xml version="1.0" encoding="UTF-8"?>
<svg xmlns="http://www.w3.org/2000/svg" xmlns:xlink="http://www.w3.org/1999/xlink" width="80" height="80" viewBox="0 0 80 80" version="1.1">
<defs>
<clipPath id="clip1">
  <path d="M 0.363281 0.363281 L 80 0.363281 L 80 80 L 0.363281 80 Z M 0.363281 0.363281 "/>
</clipPath>
</defs>
<g id="surface1">
<g clip-path="url(#clip1)" clip-rule="nonzero">
<path style=" stroke:none;fill-rule:nonzero;fill:rgb(80.000001%,13.333334%,39.215687%);fill-opacity:1;" d="M 0.363281 0.363281 L 80 0.363281 L 80 80 L 0.363281 80 Z M 0.363281 0.363281 "/>
</g>
<path style=" stroke:none;fill-rule:nonzero;fill:rgb(100%,100%,100%);fill-opacity:1;" d="M 59.273438 37.527344 C 59.253906 34.882812 57.601562 32.523438 55.121094 31.601562 C 53.261719 30.984375 51.21875 31.316406 49.652344 32.492188 C 48.960938 30.984375 48.003906 29.609375 46.828125 28.4375 C 43.144531 24.648438 37.496094 23.542969 32.652344 25.664062 C 28.160156 27.761719 25.253906 32.230469 25.15625 37.1875 L 25.15625 37.761719 C 22.539062 38.550781 20.441406 40.511719 19.476562 43.070312 L 21.792969 43.070312 C 22.777344 41.253906 24.507812 39.964844 26.527344 39.535156 C 27.007812 39.410156 27.339844 38.96875 27.324219 38.472656 L 27.238281 37.121094 C 27.371094 33.050781 29.757812 29.386719 33.429688 27.621094 C 37.488281 25.84375 42.226562 26.773438 45.308594 29.957031 C 46.636719 31.296875 47.636719 32.925781 48.242188 34.710938 C 48.375 35.082031 48.703125 35.347656 49.089844 35.402344 C 49.472656 35.457031 49.855469 35.296875 50.089844 34.988281 C 51.082031 33.648438 52.824219 33.09375 54.410156 33.617188 C 56.164062 34.203125 57.160156 35.914062 57.160156 38.226562 C 57.070312 38.800781 57.457031 39.339844 58.03125 39.4375 C 59.984375 39.777344 64.550781 41.136719 64.550781 46.550781 C 64.550781 53.019531 58.179688 53.699219 57.988281 53.71875 L 35.957031 53.71875 L 35.957031 55.84375 L 58.125 55.84375 C 61.101562 55.578125 66.707031 53.292969 66.707031 46.550781 C 66.707031 41.167969 63.011719 38.398438 59.273438 37.527344 Z M 15.738281 55.84375 L 13.613281 55.84375 L 13.613281 53.71875 L 15.738281 53.71875 Z M 25.296875 55.84375 L 17.863281 55.84375 L 17.863281 53.71875 L 25.296875 53.71875 Z M 33.789062 55.84375 L 27.417969 55.84375 L 27.417969 53.71875 L 33.789062 53.71875 Z M 24.234375 51.597656 L 14.675781 51.597656 L 14.675781 49.472656 L 24.234375 49.472656 Z M 44.40625 51.597656 L 31.667969 51.597656 L 31.667969 49.472656 L 44.40625 49.472656 Z M 33.789062 47.347656 L 27.417969 47.347656 L 27.417969 45.226562 L 33.789062 45.226562 Z M 25.296875 47.347656 L 16.800781 47.347656 L 16.800781 45.226562 L 25.296875 45.226562 Z M 29.542969 51.597656 L 26.355469 51.597656 L 26.355469 49.472656 L 29.542969 49.472656 Z M 29.542969 51.597656 "/>
</g>
</svg>
