<?xml version="1.0" encoding="UTF-8"?>
<svg xmlns="http://www.w3.org/2000/svg" xmlns:xlink="http://www.w3.org/1999/xlink" width="50" height="50" viewBox="0 0 50 50" version="1.1">
<defs>
<clipPath id="clip1">
  <path d="M 0.222656 0.222656 L 50 0.222656 L 50 50 L 0.222656 50 Z M 0.222656 0.222656 "/>
</clipPath>
<linearGradient id="linear0" gradientUnits="userSpaceOnUse" x1="97.031197" y1="541.968994" x2="410.968994" y2="228.031006" gradientTransform="matrix(0.224215,0,0,0.224215,-31.838565,-61.210762)">
<stop offset="0" style="stop-color:rgb(74.117649%,3.137255%,8.627451%);stop-opacity:1;"/>
<stop offset="1" style="stop-color:rgb(100%,32.156864%,32.156864%);stop-opacity:1;"/>
</linearGradient>
</defs>
<g id="surface1">
<g clip-path="url(#clip1)" clip-rule="nonzero">
<path style=" stroke:none;fill-rule:nonzero;fill:url(#linear0);" d="M 0.222656 0.222656 L 50 0.222656 L 50 50 L 0.222656 50 Z M 0.222656 0.222656 "/>
</g>
<path style=" stroke:none;fill-rule:nonzero;fill:rgb(100%,100%,100%);fill-opacity:1;" d="M 40.667969 35.226562 L 32.929688 28.257812 C 36.210938 21.902344 33.71875 14.09375 27.367188 10.8125 C 21.011719 7.53125 13.199219 10.023438 9.917969 16.375 C 6.640625 22.730469 9.128906 30.542969 15.484375 33.824219 C 19.683594 35.992188 24.726562 35.699219 28.648438 33.0625 L 36.355469 40.042969 C 37.640625 41.277344 39.679688 41.238281 40.914062 39.953125 C 42.148438 38.667969 42.109375 36.628906 40.824219 35.394531 C 40.773438 35.34375 40.722656 35.296875 40.667969 35.253906 Z M 9.875 22.324219 C 9.875 15.9375 15.054688 10.757812 21.441406 10.757812 C 27.832031 10.757812 33.011719 15.9375 33.011719 22.324219 C 33.011719 28.707031 27.84375 33.882812 21.460938 33.894531 C 15.074219 33.902344 9.886719 28.734375 9.875 22.34375 C 9.875 22.339844 9.875 22.332031 9.875 22.324219 Z M 39.878906 38.855469 C 39.195312 39.605469 38.035156 39.664062 37.277344 38.988281 L 29.765625 32.214844 C 30.710938 31.421875 31.535156 30.5 32.21875 29.472656 L 39.746094 36.25 C 40.496094 36.933594 40.554688 38.097656 39.878906 38.855469 Z M 39.878906 38.855469 "/>
<path style=" stroke:none;fill-rule:nonzero;fill:rgb(100%,100%,100%);fill-opacity:1;" d="M 21.460938 12.703125 C 16.148438 12.703125 11.839844 17.011719 11.839844 22.324219 C 11.839844 27.640625 16.148438 31.949219 21.460938 31.949219 C 26.777344 31.949219 31.085938 27.640625 31.085938 22.324219 C 31.078125 17.011719 26.773438 12.707031 21.460938 12.703125 Z M 21.460938 30.574219 C 16.90625 30.574219 13.210938 26.882812 13.210938 22.324219 C 13.210938 17.769531 16.90625 14.074219 21.460938 14.074219 C 26.015625 14.074219 29.710938 17.769531 29.710938 22.324219 C 29.710938 23.449219 29.480469 24.5625 29.035156 25.597656 L 24.589844 24.933594 C 24.339844 24.136719 23.820312 23.453125 23.121094 23 L 23.121094 20.746094 C 24.644531 20.460938 25.652344 18.996094 25.367188 17.472656 C 25.082031 15.945312 23.617188 14.941406 22.09375 15.226562 C 20.570312 15.507812 19.5625 16.976562 19.847656 18.5 C 20.039062 19.53125 20.789062 20.367188 21.792969 20.671875 L 21.792969 22.515625 C 21.609375 22.480469 21.421875 22.460938 21.234375 22.457031 C 20.382812 22.460938 19.5625 22.777344 18.925781 23.347656 L 17.558594 21.972656 C 17.890625 21.417969 18.058594 20.78125 18.050781 20.132812 C 18.054688 18.914062 17.433594 17.777344 16.40625 17.121094 L 15.6875 18.25 C 16.734375 18.921875 17.039062 20.320312 16.367188 21.367188 C 15.949219 22.015625 15.234375 22.40625 14.46875 22.402344 L 14.46875 23.730469 C 15.242188 23.730469 15.996094 23.472656 16.609375 23 L 18.058594 24.457031 C 17.820312 24.925781 17.695312 25.445312 17.691406 25.976562 C 17.714844 27.914062 19.308594 29.464844 21.246094 29.441406 C 23.003906 29.417969 24.472656 28.101562 24.6875 26.359375 L 28.304688 26.890625 C 26.78125 29.183594 24.214844 30.5625 21.460938 30.574219 Z M 21.234375 23.804688 C 22.4375 23.800781 23.417969 24.773438 23.417969 25.976562 C 23.421875 27.175781 22.453125 28.15625 21.25 28.160156 C 20.046875 28.160156 19.070312 27.191406 19.066406 25.988281 C 19.066406 25.984375 19.066406 25.980469 19.066406 25.976562 C 19.070312 24.789062 20.023438 23.824219 21.210938 23.804688 Z M 22.5625 19.417969 C 21.789062 19.414062 21.167969 18.785156 21.171875 18.011719 C 21.171875 17.238281 21.804688 16.613281 22.578125 16.617188 C 23.347656 16.621094 23.96875 17.246094 23.96875 18.015625 C 23.96875 18.789062 23.34375 19.417969 22.570312 19.417969 C 22.566406 19.417969 22.5625 19.417969 22.558594 19.417969 Z M 22.5625 19.417969 "/>
</g>
</svg>
