<?xml version="1.0" encoding="UTF-8"?>
<svg xmlns="http://www.w3.org/2000/svg" xmlns:xlink="http://www.w3.org/1999/xlink" width="80" height="80" viewBox="0 0 80 80" version="1.1">
<defs>
<clipPath id="clip1">
  <path d="M 0.355469 0.359375 L 80 0.359375 L 80 80 L 0.355469 80 Z M 0.355469 0.359375 "/>
</clipPath>
<linearGradient id="linear0" gradientUnits="userSpaceOnUse" x1="-45.9688" y1="267.977997" x2="267.987" y2="-45.977798" gradientTransform="matrix(0.35875,0,0,0.358744,0.357143,0.358744)">
<stop offset="0" style="stop-color:rgb(74.117649%,3.137255%,8.627451%);stop-opacity:1;"/>
<stop offset="1" style="stop-color:rgb(100%,32.156864%,32.156864%);stop-opacity:1;"/>
</linearGradient>
</defs>
<g id="surface1">
<g clip-path="url(#clip1)" clip-rule="nonzero">
<path style=" stroke:none;fill-rule:nonzero;fill:url(#linear0);" d="M 0.355469 0.359375 L 80 0.359375 L 80 80 L 0.355469 80 Z M 0.355469 0.359375 "/>
</g>
<path style=" stroke:none;fill-rule:nonzero;fill:rgb(100%,100%,100%);fill-opacity:1;" d="M 56.105469 20.121094 L 56.105469 41.292969 C 55.402344 41.222656 54.6875 41.222656 53.984375 41.292969 L 53.984375 20.894531 L 34.867188 14.757812 L 15.753906 21.90625 L 15.753906 43.671875 C 15.882812 47.488281 16.710938 51.25 18.195312 54.769531 C 21.382812 62 26.957031 65.664062 34.867188 65.664062 C 38.097656 65.738281 41.292969 65.007812 44.171875 63.539062 L 45.574219 65.132812 L 45.574219 65.238281 C 42.289062 67.007812 38.597656 67.886719 34.867188 67.789062 C 23.867188 67.789062 18.675781 61.171875 16.285156 55.578125 C 14.667969 51.808594 13.769531 47.769531 13.632812 43.671875 L 13.632812 21.171875 C 13.628906 20.726562 13.90625 20.328125 14.320312 20.171875 L 34.496094 12.632812 C 34.722656 12.554688 34.972656 12.554688 35.199219 12.632812 L 55.375 19.121094 C 55.808594 19.261719 56.101562 19.664062 56.105469 20.121094 Z M 56.105469 20.121094 "/>
<path style=" stroke:none;fill-rule:nonzero;fill:rgb(100%,100%,100%);fill-opacity:1;" d="M 50.105469 23.804688 L 35.242188 18.21875 C 35 18.132812 34.738281 18.132812 34.496094 18.21875 L 19.628906 23.804688 C 19.214844 23.960938 18.9375 24.359375 18.941406 24.804688 L 18.941406 45.765625 C 18.933594 45.832031 18.933594 45.898438 18.941406 45.964844 C 19.5625 48.777344 20.605469 51.480469 22.03125 53.984375 C 25.152344 59.355469 29.582031 62.203125 34.847656 62.203125 C 37.441406 62.242188 39.984375 61.503906 42.152344 60.078125 C 41.886719 59.390625 41.675781 58.679688 41.515625 57.957031 L 41.261719 58.136719 C 39.695312 59.238281 37.863281 59.90625 35.953125 60.070312 L 35.953125 20.777344 L 48.695312 25.558594 L 48.695312 42.835938 C 49.375 42.476562 50.085938 42.183594 50.820312 41.953125 L 50.820312 24.78125 C 50.808594 24.339844 50.523438 23.949219 50.105469 23.804688 Z M 21.0625 45.660156 L 21.0625 25.535156 L 33.808594 20.757812 L 33.808594 60.046875 C 24.25 59.175781 21.320312 46.859375 21.0625 45.660156 Z M 21.0625 45.660156 "/>
<path style=" stroke:none;fill-rule:nonzero;fill:rgb(100%,100%,100%);fill-opacity:1;" d="M 60.355469 53.769531 L 60.355469 55.894531 L 56.105469 55.894531 L 56.105469 60.144531 L 53.984375 60.144531 L 53.984375 55.894531 L 49.734375 55.894531 L 49.734375 53.769531 L 53.984375 53.769531 L 53.984375 49.523438 L 56.105469 49.523438 L 56.105469 53.769531 Z M 60.355469 53.769531 "/>
<path style=" stroke:none;fill-rule:nonzero;fill:rgb(100%,100%,100%);fill-opacity:1;" d="M 55.046875 66.726562 C 48.59375 66.726562 43.363281 61.496094 43.363281 55.046875 C 43.363281 48.59375 48.59375 43.363281 55.046875 43.363281 C 61.496094 43.363281 66.726562 48.59375 66.726562 55.046875 C 66.726562 61.496094 61.496094 66.726562 55.046875 66.726562 Z M 55.046875 45.488281 C 49.765625 45.488281 45.488281 49.765625 45.488281 55.046875 C 45.488281 60.324219 49.765625 64.601562 55.046875 64.601562 C 60.324219 64.601562 64.601562 60.324219 64.601562 55.046875 C 64.601562 49.765625 60.324219 45.488281 55.046875 45.488281 Z M 55.046875 45.488281 "/>
</g>
</svg>
