<svg width="96" height="96" xmlns="http://www.w3.org/2000/svg" xmlns:xlink="http://www.w3.org/1999/xlink" xml:space="preserve" overflow="hidden"><defs><clipPath id="clip0"><rect x="204" y="28" width="96" height="96"/></clipPath></defs><g clip-path="url(#clip0)" transform="translate(-204 -28)"><path d="M237 58.8C237 63.7706 232.971 67.8 228 67.8 223.029 67.8 219 63.7706 219 58.8 219 53.8294 223.029 49.8 228 49.8 232.971 49.8 237 53.8294 237 58.8Z" fill="#ED7D31" fill-rule="nonzero" fill-opacity="1"/><path d="M285 58.8C285 63.7706 280.971 67.8 276 67.8 271.029 67.8 267 63.7706 267 58.8 267 53.8294 271.029 49.8 276 49.8 280.971 49.8 285 53.8294 285 58.8Z" fill="#ED7D31" fill-rule="nonzero" fill-opacity="1"/><path d="M270 102.2 270 93.2C270 91.8 269.4 90.4 268.2 89.6 265.8 87.6 262.6 86.2 259.4 85.4 257.2 84.8 254.6 84.2 252 84.2 249.6 84.2 247 84.6 244.6 85.4 241.4 86.2 238.4 87.8 235.8 89.6 234.6 90.6 234 91.8 234 93.2L234 102.2 270 102.2Z" fill="#ED7D31" fill-rule="nonzero" fill-opacity="1"/><path d="M261 72.8C261 77.7706 256.971 81.8 252 81.8 247.029 81.8 243 77.7706 243 72.8 243 67.8294 247.029 63.8 252 63.8 256.971 63.8 261 67.8294 261 72.8Z" fill="#ED7D31" fill-rule="nonzero" fill-opacity="1"/><path d="M292.2 75.6C289.8 73.6 286.6 72.2 283.4 71.4 281.2 70.8 278.6 70.2 276 70.2 273.6 70.2 271 70.6 268.6 71.4 267.4 71.8 266.2 72.2 265 72.8L265 73C265 76.4 263.6 79.6 261.4 81.8 265.2 83 268.2 84.6 270.6 86.4 271.2 87 271.8 87.4 272.2 88.2L294 88.2 294 79.2C294 77.8 293.4 76.4 292.2 75.6Z" fill="#ED7D31" fill-rule="nonzero" fill-opacity="1"/><path d="M233.4 86.4 233.4 86.4C236.2 84.4 239.4 82.8 242.6 81.8 240.4 79.4 239 76.4 239 73 239 72.8 239 72.8 239 72.6 237.8 72.2 236.6 71.6 235.4 71.4 233.2 70.8 230.6 70.2 228 70.2 225.6 70.2 223 70.6 220.6 71.4 217.4 72.4 214.4 73.8 211.8 75.6 210.6 76.4 210 77.8 210 79.2L210 88.2 231.6 88.2C232.2 87.4 232.6 87 233.4 86.4Z" fill="#ED7D31" fill-rule="nonzero" fill-opacity="1"/></g></svg>