<svg width="97" height="96" xmlns="http://www.w3.org/2000/svg" xmlns:xlink="http://www.w3.org/1999/xlink" xml:space="preserve" overflow="hidden"><defs><clipPath id="clip0"><rect x="392" y="12" width="97" height="96"/></clipPath><clipPath id="clip1"><rect x="393" y="12" width="96" height="96"/></clipPath><clipPath id="clip2"><rect x="393" y="12" width="96" height="96"/></clipPath><clipPath id="clip3"><rect x="393" y="12" width="96" height="96"/></clipPath></defs><g clip-path="url(#clip0)" transform="translate(-392 -12)"><g clip-path="url(#clip1)"><g clip-path="url(#clip2)"><g clip-path="url(#clip3)"><path d="M457 42C457 50.8366 449.837 58 441 58 432.163 58 425 50.8366 425 42 425 33.1634 432.163 26 441 26 449.837 26 457 33.1634 457 42Z" fill="#ED7D31" fill-rule="nonzero" fill-opacity="1"/><path d="M473 94 473 78C473 75.6 471.8 73.2 469.8 71.6 465.4 68 459.8 65.6 454.2 64 450.2 62.8 445.8 62 441 62 436.6 62 432.2 62.8 427.8 64 422.2 65.6 416.6 68.4 412.2 71.6 410.2 73.2 409 75.6 409 78L409 94 473 94Z" fill="#ED7D31" fill-rule="nonzero" fill-opacity="1"/></g></g></g></g></svg>