<?xml version="1.0" encoding="UTF-8"?>
<svg xmlns="http://www.w3.org/2000/svg" xmlns:xlink="http://www.w3.org/1999/xlink" width="80" height="80" viewBox="0 0 80 80" version="1.1">
<defs>
<clipPath id="clip1">
  <path d="M 0.355469 0.355469 L 80 0.355469 L 80 80 L 0.355469 80 Z M 0.355469 0.355469 "/>
</clipPath>
<linearGradient id="linear0" gradientUnits="userSpaceOnUse" x1="97.031097" y1="541.968994" x2="410.968994" y2="228.031006" gradientTransform="matrix(0.358744,0,0,0.358744,-50.941705,-97.937219)">
<stop offset="0" style="stop-color:rgb(69.01961%,3.137255%,30.19608%);stop-opacity:1;"/>
<stop offset="1" style="stop-color:rgb(100%,30.980393%,54.509807%);stop-opacity:1;"/>
</linearGradient>
</defs>
<g id="surface1">
<g clip-path="url(#clip1)" clip-rule="nonzero">
<path style=" stroke:none;fill-rule:nonzero;fill:url(#linear0);" d="M 0.355469 0.355469 L 80 0.355469 L 80 80 L 0.355469 80 Z M 0.355469 0.355469 "/>
</g>
<path style=" stroke:none;fill-rule:nonzero;fill:rgb(100%,100%,100%);fill-opacity:1;" d="M 52.394531 20.539062 L 40.710938 13.769531 C 40.382812 13.582031 39.976562 13.582031 39.648438 13.769531 L 27.96875 20.539062 C 27.636719 20.726562 27.4375 21.074219 27.4375 21.457031 L 27.4375 34.945312 C 27.4375 35.324219 27.636719 35.675781 27.96875 35.867188 L 39.648438 42.613281 C 39.976562 42.800781 40.382812 42.800781 40.710938 42.613281 L 52.394531 35.867188 C 52.71875 35.675781 52.925781 35.324219 52.925781 34.945312 L 52.925781 21.4375 C 52.917969 21.0625 52.710938 20.71875 52.394531 20.539062 Z M 39.117188 39.832031 L 29.5625 34.335938 L 29.5625 23.289062 L 39.117188 28.792969 Z M 40.179688 26.957031 L 30.625 21.4375 L 40.179688 15.914062 L 49.738281 21.4375 Z M 50.800781 34.335938 L 41.242188 39.851562 L 41.242188 28.792969 L 50.800781 23.289062 Z M 50.800781 34.335938 "/>
<path style=" stroke:none;fill-rule:nonzero;fill:rgb(100%,100%,100%);fill-opacity:1;" d="M 65.664062 53.980469 L 61.417969 53.980469 L 61.417969 48.675781 C 61.417969 48.085938 60.945312 47.613281 60.355469 47.613281 L 41.242188 47.613281 L 41.242188 44.425781 L 39.117188 44.425781 L 39.117188 47.613281 L 20.007812 47.613281 C 19.417969 47.613281 18.945312 48.085938 18.945312 48.675781 L 18.945312 53.980469 L 14.695312 53.980469 C 14.105469 53.980469 13.632812 54.457031 13.632812 55.042969 L 13.632812 65.664062 C 13.632812 66.25 14.105469 66.726562 14.695312 66.726562 L 25.3125 66.726562 C 25.898438 66.726562 26.375 66.25 26.375 65.664062 L 26.375 55.042969 C 26.375 54.457031 25.898438 53.980469 25.3125 53.980469 L 21.0625 53.980469 L 21.0625 49.738281 L 39.117188 49.738281 L 39.117188 53.980469 L 34.867188 53.980469 C 34.28125 53.980469 33.804688 54.457031 33.804688 55.042969 L 33.804688 65.664062 C 33.804688 66.25 34.28125 66.726562 34.867188 66.726562 L 45.488281 66.726562 C 46.074219 66.726562 46.550781 66.25 46.550781 65.664062 L 46.550781 55.042969 C 46.550781 54.457031 46.074219 53.980469 45.488281 53.980469 L 41.242188 53.980469 L 41.242188 49.738281 L 59.292969 49.738281 L 59.292969 53.980469 L 55.042969 53.980469 C 54.457031 53.980469 53.980469 54.457031 53.980469 55.042969 L 53.980469 65.664062 C 53.980469 66.25 54.457031 66.726562 55.042969 66.726562 L 65.664062 66.726562 C 66.25 66.726562 66.726562 66.25 66.726562 65.664062 L 66.726562 55.042969 C 66.726562 54.457031 66.25 53.980469 65.664062 53.980469 Z M 24.25 56.105469 L 24.25 64.601562 L 15.757812 64.601562 L 15.757812 56.105469 Z M 44.425781 56.105469 L 44.425781 64.601562 L 35.929688 64.601562 L 35.929688 56.105469 Z M 64.601562 64.601562 L 56.105469 64.601562 L 56.105469 56.105469 L 64.601562 56.105469 Z M 64.601562 64.601562 "/>
</g>
</svg>
