<?xml version="1.0" encoding="UTF-8"?>
<svg xmlns="http://www.w3.org/2000/svg" xmlns:xlink="http://www.w3.org/1999/xlink" width="80" height="80" viewBox="0 0 80 80" version="1.1">
<defs>
<clipPath id="clip1">
  <path d="M 0.359375 0.359375 L 80 0.359375 L 80 80 L 0.359375 80 Z M 0.359375 0.359375 "/>
</clipPath>
<linearGradient id="linear0" gradientUnits="userSpaceOnUse" x1="97.001602" y1="537.968994" x2="410.968994" y2="224.001999" gradientTransform="matrix(0.358744,0,0,0.358744,-50.941704,-96.502242)">
<stop offset="0" style="stop-color:rgb(74.117649%,3.137255%,8.627451%);stop-opacity:1;"/>
<stop offset="1" style="stop-color:rgb(100%,32.156864%,32.156864%);stop-opacity:1;"/>
</linearGradient>
</defs>
<g id="surface1">
<g clip-path="url(#clip1)" clip-rule="nonzero">
<path style=" stroke:none;fill-rule:nonzero;fill:url(#linear0);" d="M 0.359375 0.359375 L 80 0.359375 L 80 80 L 0.359375 80 Z M 0.359375 0.359375 "/>
</g>
<path style=" stroke:none;fill-rule:nonzero;fill:rgb(100%,100%,100%);fill-opacity:1;" d="M 40.179688 23.347656 C 37.570312 23.355469 35.449219 21.242188 35.441406 18.632812 C 35.4375 16.023438 37.546875 13.902344 40.160156 13.898438 C 42.769531 13.890625 44.886719 16.003906 44.894531 18.613281 C 44.894531 18.621094 44.894531 18.625 44.894531 18.632812 C 44.894531 21.238281 42.78125 23.347656 40.179688 23.347656 Z M 40.179688 16.03125 C 38.742188 16.027344 37.574219 17.1875 37.566406 18.625 C 37.5625 20.058594 38.722656 21.230469 40.160156 21.234375 C 41.59375 21.242188 42.765625 20.082031 42.769531 18.644531 C 42.769531 18.640625 42.769531 18.636719 42.769531 18.632812 C 42.769531 17.199219 41.613281 16.039062 40.179688 16.03125 Z M 40.179688 16.03125 "/>
<path style=" stroke:none;fill-rule:nonzero;fill:rgb(100%,100%,100%);fill-opacity:1;" d="M 59.15625 31.566406 C 56.546875 31.574219 54.425781 29.460938 54.417969 26.851562 C 54.414062 24.242188 56.523438 22.121094 59.132812 22.117188 C 61.746094 22.109375 63.863281 24.222656 63.871094 26.832031 C 63.871094 26.855469 63.871094 26.882812 63.871094 26.90625 C 63.839844 29.488281 61.738281 31.566406 59.15625 31.566406 Z M 59.15625 24.25 C 57.71875 24.246094 56.550781 25.40625 56.542969 26.84375 C 56.539062 28.28125 57.699219 29.449219 59.136719 29.453125 C 60.554688 29.460938 61.71875 28.324219 61.746094 26.90625 C 61.777344 25.46875 60.636719 24.28125 59.199219 24.25 C 59.183594 24.25 59.167969 24.25 59.15625 24.25 Z M 59.15625 24.25 "/>
<path style=" stroke:none;fill-rule:nonzero;fill:rgb(100%,100%,100%);fill-opacity:1;" d="M 21.523438 57.085938 C 18.914062 57.089844 16.792969 54.980469 16.785156 52.371094 C 16.78125 49.761719 18.890625 47.640625 21.5 47.632812 C 24.109375 47.628906 26.230469 49.738281 26.238281 52.347656 C 26.238281 52.363281 26.238281 52.378906 26.238281 52.390625 C 26.226562 54.988281 24.117188 57.085938 21.523438 57.085938 Z M 21.523438 49.769531 C 20.085938 49.761719 18.914062 50.921875 18.910156 52.359375 C 18.902344 53.796875 20.0625 54.964844 21.5 54.972656 C 22.933594 54.976562 24.101562 53.824219 24.113281 52.390625 C 24.125 50.953125 22.96875 49.78125 21.53125 49.769531 C 21.53125 49.769531 21.527344 49.769531 21.523438 49.769531 Z M 21.523438 49.769531 "/>
<path style=" stroke:none;fill-rule:nonzero;fill:rgb(100%,100%,100%);fill-opacity:1;" d="M 40.179688 66.449219 C 37.570312 66.457031 35.449219 64.34375 35.441406 61.734375 C 35.4375 59.125 37.546875 57.003906 40.160156 57 C 42.769531 56.992188 44.886719 59.105469 44.894531 61.714844 C 44.894531 61.71875 44.894531 61.722656 44.894531 61.726562 C 44.894531 64.332031 42.785156 66.445312 40.179688 66.449219 Z M 40.179688 59.132812 C 38.742188 59.128906 37.574219 60.289062 37.566406 61.726562 C 37.5625 63.160156 38.722656 64.332031 40.160156 64.335938 C 41.59375 64.34375 42.765625 63.183594 42.769531 61.746094 C 42.769531 61.738281 42.769531 61.730469 42.769531 61.726562 C 42.765625 60.296875 41.609375 59.140625 40.179688 59.132812 Z M 40.179688 59.132812 "/>
<path style=" stroke:none;fill-rule:nonzero;fill:rgb(100%,100%,100%);fill-opacity:1;" d="M 21.203125 31.300781 C 18.59375 31.300781 16.476562 29.1875 16.476562 26.578125 C 16.476562 23.96875 18.59375 21.851562 21.203125 21.851562 C 23.8125 21.851562 25.929688 23.96875 25.929688 26.578125 C 25.929688 26.582031 25.929688 26.582031 25.929688 26.585938 C 25.929688 29.191406 23.816406 31.300781 21.214844 31.300781 C 21.210938 31.300781 21.207031 31.300781 21.203125 31.300781 Z M 21.203125 23.984375 C 19.765625 23.984375 18.601562 25.152344 18.601562 26.585938 C 18.601562 28.023438 19.765625 29.1875 21.203125 29.1875 C 22.640625 29.1875 23.804688 28.023438 23.804688 26.585938 C 23.804688 25.152344 22.640625 23.984375 21.203125 23.984375 Z M 21.203125 23.984375 "/>
<path style=" stroke:none;fill-rule:nonzero;fill:rgb(100%,100%,100%);fill-opacity:1;" d="M 23.917969 29.570312 L 25.136719 27.832031 L 30.839844 31.832031 L 29.621094 33.570312 Z M 23.917969 29.570312 "/>
<path style=" stroke:none;fill-rule:nonzero;fill:rgb(100%,100%,100%);fill-opacity:1;" d="M 49.515625 30.46875 L 55.90625 27.46875 L 56.808594 29.390625 L 50.417969 32.390625 Z M 49.515625 30.46875 "/>
<path style=" stroke:none;fill-rule:nonzero;fill:rgb(100%,100%,100%);fill-opacity:1;" d="M 24.28125 49.546875 L 29.332031 46.023438 L 30.546875 47.765625 L 25.496094 51.289062 Z M 24.28125 49.546875 "/>
<path style=" stroke:none;fill-rule:nonzero;fill:rgb(100%,100%,100%);fill-opacity:1;" d="M 39.117188 23.15625 L 41.242188 23.15625 L 41.242188 27.53125 L 39.117188 27.53125 Z M 39.117188 23.15625 "/>
<path style=" stroke:none;fill-rule:nonzero;fill:rgb(100%,100%,100%);fill-opacity:1;" d="M 39.117188 53.273438 L 41.242188 53.273438 L 41.242188 57.773438 L 39.117188 57.773438 Z M 39.117188 53.273438 "/>
<path style=" stroke:none;fill-rule:nonzero;fill:rgb(100%,100%,100%);fill-opacity:1;" d="M 59.15625 56.457031 C 56.546875 56.464844 54.425781 54.351562 54.417969 51.742188 C 54.414062 49.132812 56.523438 47.011719 59.132812 47.007812 C 61.742188 47 63.863281 49.113281 63.871094 51.722656 C 63.871094 51.730469 63.871094 51.734375 63.871094 51.742188 C 63.871094 54.347656 61.757812 56.457031 59.15625 56.457031 Z M 59.15625 49.140625 C 57.71875 49.136719 56.550781 50.296875 56.542969 51.734375 C 56.535156 53.167969 57.695312 54.339844 59.132812 54.34375 C 60.570312 54.351562 61.742188 53.191406 61.746094 51.753906 C 61.746094 51.75 61.746094 51.746094 61.746094 51.742188 C 61.746094 50.3125 60.589844 49.148438 59.15625 49.140625 Z M 59.15625 49.140625 "/>
<path style=" stroke:none;fill-rule:nonzero;fill:rgb(100%,100%,100%);fill-opacity:1;" d="M 50.621094 47.484375 L 51.839844 45.746094 L 56.382812 48.917969 L 55.167969 50.660156 Z M 50.621094 47.484375 "/>
<path style=" stroke:none;fill-rule:nonzero;fill:rgb(100%,100%,100%);fill-opacity:1;" d="M 40.242188 53.613281 C 32.824219 53.613281 26.808594 47.597656 26.808594 40.179688 C 26.808594 32.761719 32.824219 26.746094 40.242188 26.746094 C 47.660156 26.746094 53.675781 32.761719 53.675781 40.179688 C 53.671875 47.59375 47.660156 53.605469 40.242188 53.613281 Z M 40.242188 28.871094 C 33.996094 28.871094 28.933594 33.933594 28.933594 40.179688 C 28.933594 46.425781 33.996094 51.488281 40.242188 51.488281 C 46.488281 51.488281 51.550781 46.425781 51.550781 40.179688 C 51.539062 33.9375 46.484375 28.882812 40.242188 28.871094 Z M 40.242188 28.871094 "/>
<path style=" stroke:none;fill-rule:nonzero;fill:rgb(100%,100%,100%);fill-opacity:1;" d="M 40.496094 50.597656 C 34.125 50.597656 32.375 44.980469 32.375 42.003906 L 32.375 33.746094 C 32.375 33.316406 32.636719 32.929688 33.03125 32.765625 L 40.082031 29.847656 C 40.34375 29.738281 40.640625 29.738281 40.902344 29.847656 L 47.953125 32.765625 C 48.347656 32.929688 48.609375 33.316406 48.609375 33.746094 L 48.609375 42.027344 C 48.609375 44.957031 46.910156 50.597656 40.496094 50.597656 Z M 34.5 34.457031 L 34.5 42.003906 C 34.5 42.269531 34.605469 48.472656 40.496094 48.472656 C 46.390625 48.472656 46.488281 42.292969 46.488281 42.027344 L 46.488281 34.457031 L 40.496094 31.980469 Z M 34.5 34.457031 "/>
<path style=" stroke:none;fill-rule:nonzero;fill:rgb(100%,100%,100%);fill-opacity:1;" d="M 40.496094 47.082031 C 36.535156 47.082031 35.59375 42.3125 35.550781 42.113281 C 35.542969 42.042969 35.542969 41.976562 35.550781 41.910156 L 35.550781 36.460938 C 35.550781 36.027344 35.8125 35.636719 36.21875 35.476562 L 40.117188 33.902344 C 40.371094 33.800781 40.65625 33.800781 40.910156 33.902344 L 44.789062 35.402344 C 45.191406 35.5625 45.457031 35.953125 45.457031 36.386719 L 45.457031 41.890625 C 45.460938 41.957031 45.460938 42.023438 45.457031 42.089844 C 45.402344 42.3125 44.449219 47.082031 40.496094 47.082031 Z M 37.652344 41.773438 C 37.78125 42.28125 38.5 44.957031 40.496094 44.957031 C 42.496094 44.957031 43.214844 42.3125 43.332031 41.773438 L 43.332031 37.101562 L 40.496094 35.972656 L 37.652344 37.121094 Z M 37.652344 41.773438 "/>
<path style=" stroke:none;fill-rule:nonzero;fill:rgb(100%,100%,100%);fill-opacity:1;" d="M 39.445312 35.644531 L 41.570312 35.644531 L 41.570312 46.835938 L 39.445312 46.835938 Z M 39.445312 35.644531 "/>
</g>
</svg>
