<?xml version="1.0" encoding="UTF-8"?>
<svg xmlns="http://www.w3.org/2000/svg" xmlns:xlink="http://www.w3.org/1999/xlink" width="86" height="84" viewBox="0 0 86 84" version="1.1">
<g id="surface1">
<path style=" stroke:none;fill-rule:nonzero;fill:rgb(41.176471%,23.529412%,77.254903%);fill-opacity:1;" d="M 43 5.039062 C 63.671875 5.039062 80.433594 21.585938 80.433594 42 C 80.433594 62.414062 63.671875 78.960938 43 78.960938 C 22.328125 78.960938 5.566406 62.414062 5.566406 42 C 5.566406 21.585938 22.328125 5.039062 43 5.039062 M 43 1.679688 C 20.445312 1.679688 2.164062 19.730469 2.164062 42 C 2.164062 64.269531 20.445312 82.320312 43 82.320312 C 65.554688 82.320312 83.835938 64.269531 83.835938 42 C 83.835938 19.730469 65.554688 1.679688 43 1.679688 Z M 43 1.679688 "/>
<path style=" stroke:none;fill-rule:nonzero;fill:rgb(41.176471%,23.529412%,77.254903%);fill-opacity:1;" d="M 25.492188 61.671875 L 23.074219 59.285156 L 27.6875 54.75 L 27.6875 41.007812 L 16.269531 29.753906 L 18.6875 27.367188 L 31.089844 39.632812 L 31.089844 56.128906 Z M 25.492188 61.671875 "/>
<path style=" stroke:none;fill-rule:nonzero;fill:rgb(41.176471%,23.529412%,77.254903%);fill-opacity:1;" d="M 55.410156 56.628906 L 57.816406 54.253906 L 62.917969 59.289062 L 60.511719 61.667969 Z M 55.410156 56.628906 "/>
<path style=" stroke:none;fill-rule:nonzero;fill:rgb(41.176471%,23.529412%,77.254903%);fill-opacity:1;" d="M 54.910156 48.871094 L 58.3125 48.871094 L 58.3125 53.761719 L 54.910156 53.761719 Z M 54.910156 48.871094 "/>
<path style=" stroke:none;fill-rule:nonzero;fill:rgb(41.176471%,23.529412%,77.254903%);fill-opacity:1;" d="M 54.910156 42.101562 L 58.3125 42.101562 L 58.3125 47.039062 L 54.910156 47.039062 Z M 54.910156 42.101562 "/>
<path style=" stroke:none;fill-rule:nonzero;fill:rgb(41.176471%,23.529412%,77.254903%);fill-opacity:1;" d="M 57.101562 37.453125 L 60.457031 34.140625 L 62.863281 36.515625 L 59.507812 39.832031 Z M 57.101562 37.453125 "/>
<path style=" stroke:none;fill-rule:nonzero;fill:rgb(41.176471%,23.529412%,77.254903%);fill-opacity:1;" d="M 62.199219 32.433594 L 65.628906 29.046875 L 68.035156 31.425781 L 64.605469 34.808594 Z M 62.199219 32.433594 "/>
<path style=" stroke:none;fill-rule:nonzero;fill:rgb(41.176471%,23.529412%,77.254903%);fill-opacity:1;" d="M 39.597656 67.199219 L 36.195312 67.199219 L 36.195312 29.25 L 27.328125 20.511719 L 29.746094 18.128906 L 39.597656 27.871094 Z M 39.597656 67.199219 "/>
<path style=" stroke:none;fill-rule:nonzero;fill:rgb(41.176471%,23.529412%,77.254903%);fill-opacity:1;" d="M 32.789062 63.839844 L 20.878906 63.839844 L 20.878906 52.078125 L 24.285156 52.078125 L 24.285156 60.480469 L 32.789062 60.480469 Z M 32.789062 63.839844 "/>
<path style=" stroke:none;fill-rule:nonzero;fill:rgb(41.176471%,23.529412%,77.254903%);fill-opacity:1;" d="M 65.121094 63.839844 L 53.210938 63.839844 L 53.210938 60.480469 L 61.714844 60.480469 L 61.714844 52.078125 L 65.121094 52.078125 Z M 65.121094 63.839844 "/>
<path style=" stroke:none;fill-rule:nonzero;fill:rgb(41.176471%,23.529412%,77.254903%);fill-opacity:1;" d="M 29.421875 30.238281 L 26.019531 30.238281 L 26.019531 16.800781 L 39.597656 16.800781 L 39.597656 20.160156 L 29.421875 20.160156 Z M 29.421875 30.238281 "/>
<path style=" stroke:none;fill-rule:nonzero;fill:rgb(41.176471%,23.529412%,77.254903%);fill-opacity:1;" d="M 60.015625 30.238281 L 56.613281 30.238281 L 56.613281 20.160156 L 46.4375 20.160156 L 46.4375 16.800781 L 60.015625 16.800781 Z M 60.015625 30.238281 "/>
<path style=" stroke:none;fill-rule:nonzero;fill:rgb(41.176471%,23.529412%,77.254903%);fill-opacity:1;" d="M 46.402344 62.160156 L 49.804688 62.160156 L 49.804688 67.199219 L 46.402344 67.199219 Z M 46.402344 62.160156 "/>
<path style=" stroke:none;fill-rule:nonzero;fill:rgb(41.176471%,23.529412%,77.254903%);fill-opacity:1;" d="M 46.402344 55.441406 L 49.804688 55.441406 L 49.804688 60.480469 L 46.402344 60.480469 Z M 46.402344 55.441406 "/>
<path style=" stroke:none;fill-rule:nonzero;fill:rgb(41.176471%,23.529412%,77.254903%);fill-opacity:1;" d="M 46.402344 48.71875 L 49.804688 48.71875 L 49.804688 53.761719 L 46.402344 53.761719 Z M 46.402344 48.71875 "/>
<path style=" stroke:none;fill-rule:nonzero;fill:rgb(41.176471%,23.529412%,77.254903%);fill-opacity:1;" d="M 46.402344 42 L 49.804688 42 L 49.804688 47.039062 L 46.402344 47.039062 Z M 46.402344 42 "/>
<path style=" stroke:none;fill-rule:nonzero;fill:rgb(41.176471%,23.529412%,77.254903%);fill-opacity:1;" d="M 46.402344 35.28125 L 49.804688 35.28125 L 49.804688 40.320312 L 46.402344 40.320312 Z M 46.402344 35.28125 "/>
<path style=" stroke:none;fill-rule:nonzero;fill:rgb(41.176471%,23.529412%,77.254903%);fill-opacity:1;" d="M 46.402344 28.558594 L 49.804688 28.558594 L 49.804688 33.601562 L 46.402344 33.601562 Z M 46.402344 28.558594 "/>
<path style=" stroke:none;fill-rule:nonzero;fill:rgb(41.176471%,23.529412%,77.254903%);fill-opacity:1;" d="M 48.492188 24.953125 L 52.101562 21.390625 L 54.507812 23.765625 L 50.898438 27.328125 Z M 48.492188 24.953125 "/>
<path style=" stroke:none;fill-rule:nonzero;fill:rgb(41.176471%,23.529412%,77.254903%);fill-opacity:1;" d="M 61.714844 42 L 66.820312 42 L 66.820312 45.359375 L 61.714844 45.359375 Z M 61.714844 42 "/>
<path style=" stroke:none;fill-rule:nonzero;fill:rgb(41.176471%,23.529412%,77.254903%);fill-opacity:1;" d="M 68.523438 42 L 73.628906 42 L 73.628906 45.359375 L 68.523438 45.359375 Z M 68.523438 42 "/>
<path style=" stroke:none;fill-rule:nonzero;fill:rgb(41.176471%,23.529412%,77.254903%);fill-opacity:1;" d="M 70.222656 50.398438 C 69.773438 50.402344 69.335938 50.226562 69.015625 49.914062 C 68.347656 49.257812 68.34375 48.195312 69.007812 47.539062 C 69.007812 47.535156 69.011719 47.53125 69.015625 47.527344 L 74.121094 42.488281 C 74.789062 41.828125 75.871094 41.828125 76.535156 42.488281 C 77.203125 43.144531 77.203125 44.214844 76.535156 44.871094 L 71.433594 49.914062 C 71.109375 50.226562 70.675781 50.402344 70.222656 50.398438 Z M 70.222656 50.398438 "/>
<path style=" stroke:none;fill-rule:nonzero;fill:rgb(41.176471%,23.529412%,77.254903%);fill-opacity:1;" d="M 75.328125 45.359375 C 74.875 45.363281 74.441406 45.1875 74.121094 44.871094 L 69.015625 39.832031 C 68.347656 39.175781 68.347656 38.105469 69.015625 37.445312 C 69.683594 36.789062 70.765625 36.789062 71.433594 37.445312 L 76.535156 42.488281 C 77.203125 43.140625 77.207031 44.203125 76.546875 44.863281 C 76.542969 44.867188 76.539062 44.871094 76.535156 44.871094 C 76.214844 45.1875 75.78125 45.363281 75.328125 45.359375 Z M 75.328125 45.359375 "/>
<path style=" stroke:none;fill-rule:nonzero;fill:rgb(41.176471%,23.529412%,77.254903%);fill-opacity:1;" d="M 10.671875 42 L 24.285156 42 L 24.285156 45.359375 L 10.671875 45.359375 Z M 10.671875 42 "/>
<path style=" stroke:none;fill-rule:nonzero;fill:rgb(41.176471%,23.529412%,77.254903%);fill-opacity:1;" d="M 15.777344 50.398438 C 15.324219 50.402344 14.890625 50.226562 14.566406 49.914062 L 9.464844 44.871094 C 8.796875 44.214844 8.796875 43.144531 9.464844 42.488281 C 10.128906 41.828125 11.210938 41.828125 11.878906 42.488281 L 16.984375 47.527344 C 17.652344 48.179688 17.65625 49.242188 16.992188 49.902344 C 16.992188 49.90625 16.988281 49.910156 16.984375 49.914062 C 16.664062 50.226562 16.226562 50.402344 15.777344 50.398438 Z M 15.777344 50.398438 "/>
<path style=" stroke:none;fill-rule:nonzero;fill:rgb(41.176471%,23.529412%,77.254903%);fill-opacity:1;" d="M 10.671875 45.359375 C 10.21875 45.363281 9.785156 45.1875 9.464844 44.871094 C 8.796875 44.21875 8.792969 43.15625 9.453125 42.496094 C 9.457031 42.492188 9.460938 42.492188 9.464844 42.488281 L 14.566406 37.445312 C 15.234375 36.789062 16.316406 36.789062 16.984375 37.445312 C 17.652344 38.105469 17.652344 39.175781 16.984375 39.832031 L 11.878906 44.871094 C 11.558594 45.1875 11.125 45.363281 10.671875 45.359375 Z M 10.671875 45.359375 "/>
</g>
</svg>
