<?xml version="1.0" encoding="UTF-8"?>
<svg xmlns="http://www.w3.org/2000/svg" xmlns:xlink="http://www.w3.org/1999/xlink" width="80" height="80" viewBox="0 0 80 80" version="1.1">
<defs>
<linearGradient id="linear0" gradientUnits="userSpaceOnUse" x1="0" y1="1" x2="1" y2="0" gradientTransform="matrix(80,0,0,80,0,0)">
<stop offset="0" style="stop-color:rgb(74.117649%,3.137255%,8.627451%);stop-opacity:1;"/>
<stop offset="1" style="stop-color:rgb(100%,32.156864%,32.156864%);stop-opacity:1;"/>
</linearGradient>
</defs>
<g id="surface1">
<rect x="0" y="0" width="80" height="80" style="fill:url(#linear0);stroke:none;"/>
<path style=" stroke:none;fill-rule:evenodd;fill:rgb(100%,100%,100%);fill-opacity:1;" d="M 26.933594 26.574219 C 28.578125 27.089844 30.535156 27.894531 32.660156 28.777344 C 36.328125 30.289062 40.488281 32.003906 42.914062 32.003906 C 45.453125 32.003906 49.683594 30.269531 53.414062 28.734375 C 55.496094 27.882812 57.410156 27.097656 59.027344 26.589844 L 55.328125 24.667969 C 53.4375 25.34375 45.792969 28.003906 42.914062 28.003906 C 40.171875 28.003906 32.554688 25.390625 30.511719 24.671875 Z M 31.808594 23.003906 C 34.949219 24.089844 40.914062 26.003906 42.914062 26.003906 C 45.03125 26.003906 50.90625 24.101562 54.007812 23.015625 L 49.183594 14.316406 C 48.996094 14.027344 48.550781 13.925781 48.21875 14.125 L 44.316406 16.464844 C 43.453125 16.984375 42.375 16.984375 41.511719 16.464844 L 37.613281 14.125 C 37.253906 13.914062 36.792969 14.011719 36.546875 14.148438 Z M 52.695312 31.191406 C 49.082031 32.660156 45.492188 34.003906 42.914062 34.003906 C 40.425781 34.003906 36.890625 32.664062 33.320312 31.207031 C 34.578125 36.28125 39.355469 44.003906 42.945312 44.003906 C 46.679688 44.003906 51.464844 36.316406 52.695312 31.191406 Z M 23.03125 27.246094 C 22.917969 26.800781 23.125 26.335938 23.53125 26.121094 L 29.605469 22.886719 L 34.890625 13 C 34.945312 12.894531 35.023438 12.800781 35.113281 12.71875 C 35.90625 12.019531 37.40625 11.671875 38.640625 12.40625 L 42.539062 14.746094 C 42.769531 14.886719 43.058594 14.886719 43.289062 14.746094 L 47.191406 12.40625 C 48.464844 11.652344 50.113281 12.046875 50.902344 13.300781 L 56.21875 22.875 L 62.460938 26.113281 C 62.867188 26.328125 63.078125 26.792969 62.96875 27.238281 C 62.859375 27.683594 62.460938 28 62 28.003906 C 60.585938 28.003906 57.746094 29.121094 54.886719 30.292969 C 54.058594 35.925781 48.378906 46.003906 42.945312 46.003906 C 37.5625 46.003906 31.9375 35.933594 31.113281 30.296875 C 28.246094 29.117188 25.421875 28.003906 24 28.003906 C 23.539062 28 23.140625 27.6875 23.03125 27.242188 Z M 58.222656 48.195312 L 58.707031 47.710938 C 59.09375 47.320312 59.09375 46.6875 58.707031 46.296875 L 54.707031 42.296875 L 53.292969 43.710938 L 56.585938 47.003906 L 49.285156 54.296875 C 49.097656 54.484375 48.988281 54.738281 48.988281 55.003906 C 48.988281 55.269531 49.097656 55.523438 49.285156 55.710938 L 52.589844 59.007812 L 46.304688 65.328125 L 47.722656 66.738281 L 54.710938 59.707031 C 55.097656 59.316406 55.097656 58.6875 54.707031 58.296875 L 51.40625 55.003906 L 56.394531 50.019531 C 61.15625 50.195312 65.941406 53.519531 65.941406 59.003906 L 65.941406 67.003906 L 67.941406 67.003906 L 67.941406 59.003906 C 67.941406 53.539062 63.820312 49.128906 58.222656 48.195312 Z M 37.394531 62.828125 L 31.789062 57.195312 C 31.238281 57.890625 30.609375 58.515625 29.894531 59.039062 L 35.539062 64.679688 C 36.027344 65.167969 36.839844 65.148438 37.351562 64.636719 C 37.863281 64.128906 37.882812 63.316406 37.394531 62.828125 Z M 24 59.003906 C 28.410156 59.003906 32 55.414062 32 51.003906 C 32 46.59375 28.410156 43.003906 24 43.003906 C 19.589844 43.003906 16 46.59375 16 51.003906 C 16 55.414062 19.589844 59.003906 24 59.003906 Z M 38.8125 61.417969 C 40.074219 62.683594 40.054688 64.761719 38.765625 66.050781 C 38.140625 66.679688 37.289062 67.03125 36.402344 67.03125 C 35.550781 67.035156 34.730469 66.699219 34.125 66.097656 L 28.121094 60.09375 C 26.828125 60.6875 25.421875 61 24 61.003906 C 18.484375 61.003906 14 56.519531 14 51.003906 C 14 45.488281 18.484375 41.003906 24 41.003906 C 29.515625 41.003906 34 45.488281 34 51.003906 C 33.988281 52.558594 33.609375 54.089844 32.894531 55.472656 Z M 48.335938 47.230469 L 42.914062 52.5625 L 37.703125 47.242188 L 36.273438 48.644531 L 42.1875 54.675781 C 42.375 54.867188 42.625 54.972656 42.890625 54.976562 L 42.902344 54.976562 C 43.164062 54.976562 43.417969 54.875 43.605469 54.691406 L 49.734375 48.65625 Z M 58 67.003906 L 60 67.003906 L 60 59.003906 L 58 59.003906 Z M 58 67.003906 "/>
</g>
</svg>
