<?xml version="1.0" encoding="UTF-8"?>
<svg xmlns="http://www.w3.org/2000/svg" xmlns:xlink="http://www.w3.org/1999/xlink" width="80" height="80" viewBox="0 0 80 80" version="1.1">
<defs>
<linearGradient id="linear0" gradientUnits="userSpaceOnUse" x1="0" y1="1" x2="1" y2="0" gradientTransform="matrix(80,0,0,80,0,0)">
<stop offset="0" style="stop-color:rgb(69.01961%,3.137255%,30.19608%);stop-opacity:1;"/>
<stop offset="1" style="stop-color:rgb(100%,30.980393%,54.509807%);stop-opacity:1;"/>
</linearGradient>
</defs>
<g id="surface1">
<rect x="0" y="0" width="80" height="80" style="fill:url(#linear0);stroke:none;"/>
<path style=" stroke:none;fill-rule:evenodd;fill:rgb(100%,100%,100%);fill-opacity:1;" d="M 22.113281 57.1875 C 19.804688 57.175781 17.945312 55.300781 17.953125 52.996094 C 17.945312 50.691406 19.808594 48.816406 22.113281 48.804688 C 24.402344 48.804688 26.273438 50.6875 26.273438 52.996094 C 26.277344 55.300781 24.417969 57.175781 22.113281 57.1875 Z M 25.824219 57.914062 C 27.363281 56.746094 28.269531 54.925781 28.273438 52.996094 C 28.273438 49.574219 25.507812 46.789062 22.113281 46.789062 C 21.273438 46.789062 20.476562 46.960938 19.75 47.269531 L 16.152344 40.992188 L 20.875 32.746094 L 19.144531 31.738281 L 14.132812 40.488281 C 13.953125 40.800781 13.953125 41.183594 14.132812 41.496094 L 18.066406 48.355469 C 16.726562 49.527344 15.957031 51.21875 15.953125 52.996094 C 15.953125 56.421875 18.714844 59.203125 22.113281 59.203125 C 22.796875 59.203125 23.441406 59.0625 24.058594 58.855469 L 27.121094 64.542969 C 27.292969 64.867188 27.632812 65.070312 28 65.070312 L 39 65.070312 L 39 63.054688 L 28.59375 63.054688 Z M 59.886719 33.121094 C 57.582031 33.109375 55.722656 31.234375 55.726562 28.929688 C 55.722656 26.621094 57.582031 24.746094 59.886719 24.734375 C 62.191406 24.75 64.050781 26.625 64.042969 28.929688 C 64.050781 31.234375 62.191406 33.109375 59.886719 33.121094 Z M 63.933594 33.566406 C 65.269531 32.394531 66.039062 30.707031 66.042969 28.929688 C 66.042969 25.507812 63.285156 22.71875 59.886719 22.71875 C 59.207031 22.71875 58.5625 22.859375 57.945312 23.066406 L 54.882812 17.238281 C 54.714844 16.910156 54.371094 16.703125 54 16.703125 L 43 16.703125 L 43 18.71875 L 53.398438 18.71875 L 56.179688 24.007812 C 54.640625 25.175781 53.734375 27 53.726562 28.933594 C 53.726562 32.351562 56.488281 35.136719 59.886719 35.136719 C 60.726562 35.136719 61.523438 34.964844 62.246094 34.65625 L 65.847656 40.9375 L 61.121094 49.179688 L 62.855469 50.1875 L 67.863281 41.441406 C 68.042969 41.128906 68.042969 40.742188 67.863281 40.433594 L 63.933594 33.570312 Z M 54.789062 65.980469 C 52.484375 65.972656 50.621094 64.097656 50.628906 61.792969 C 50.621094 59.488281 52.484375 57.613281 54.789062 57.601562 C 57.09375 57.613281 58.953125 59.488281 58.945312 61.792969 C 58.953125 64.097656 57.089844 65.972656 54.785156 65.980469 Z M 36.40625 49 L 31.820312 40.996094 L 36.40625 32.996094 L 45.574219 32.996094 L 50.160156 40.996094 L 45.574219 49 Z M 27.273438 24.394531 C 24.96875 24.382812 23.105469 22.507812 23.113281 20.203125 C 23.105469 17.898438 24.96875 16.023438 27.273438 16.015625 C 29.5625 16.015625 31.433594 17.894531 31.433594 20.203125 C 31.4375 22.507812 29.578125 24.382812 27.273438 24.394531 Z M 54.789062 55.585938 C 53.539062 55.585938 52.375 55.96875 51.402344 56.617188 L 47.265625 50.082031 L 52.183594 41.503906 C 52.363281 41.191406 52.363281 40.804688 52.183594 40.492188 L 47.019531 31.484375 C 46.84375 31.171875 46.511719 30.980469 46.152344 30.980469 L 36.648438 30.980469 L 32.09375 24.019531 C 32.953125 22.933594 33.425781 21.589844 33.433594 20.203125 C 33.433594 16.78125 30.667969 13.996094 27.273438 13.996094 C 23.875 13.996094 21.113281 16.78125 21.113281 20.203125 C 21.113281 23.628906 23.875 26.410156 27.273438 26.410156 C 28.457031 26.40625 29.617188 26.058594 30.609375 25.40625 L 34.789062 31.792969 L 29.804688 40.492188 C 29.625 40.804688 29.625 41.1875 29.804688 41.5 L 34.964844 50.511719 C 35.140625 50.824219 35.472656 51.015625 35.828125 51.015625 L 45.484375 51.015625 L 49.921875 58.027344 C 48.476562 59.886719 48.21875 62.410156 49.25 64.527344 C 50.285156 66.648438 52.433594 67.992188 54.789062 68 C 58.1875 68 60.949219 65.214844 60.949219 61.792969 C 60.949219 58.371094 58.1875 55.589844 54.789062 55.589844 Z M 54.789062 55.585938 "/>
</g>
</svg>
