<svg width="186" height="184" xmlns="http://www.w3.org/2000/svg" xmlns:xlink="http://www.w3.org/1999/xlink" xml:space="preserve" overflow="hidden"><defs><clipPath id="clip0"><rect x="166" y="268" width="186" height="184"/></clipPath><clipPath id="clip1"><rect x="167" y="268" width="184" height="184"/></clipPath><clipPath id="clip2"><rect x="167" y="268" width="184" height="184"/></clipPath><clipPath id="clip3"><rect x="167" y="268" width="184" height="184"/></clipPath></defs><g clip-path="url(#clip0)" transform="translate(-166 -268)"><g clip-path="url(#clip1)"><g clip-path="url(#clip2)"><g clip-path="url(#clip3)"><path d="M259 279.04C303.713 279.04 339.96 315.287 339.96 360 339.96 404.713 303.713 440.96 259 440.96 214.287 440.96 178.04 404.713 178.04 360 178.04 315.287 214.287 279.04 259 279.04M259 271.68C210.222 271.68 170.68 311.222 170.68 360 170.68 408.778 210.222 448.32 259 448.32 307.778 448.32 347.32 408.778 347.32 360 347.32 311.222 307.778 271.68 259 271.68Z" fill="#693CC5" fill-rule="nonzero" fill-opacity="1"/><path d="M221.133 403.093 215.907 397.867 225.88 387.931 225.88 357.829 201.187 333.173 206.413 327.947 233.24 354.811 233.24 390.949 221.133 403.093Z" fill="#693CC5" fill-rule="nonzero" fill-opacity="1"/><path d="M285.843 392.046 291.047 386.841 302.08 397.874 296.876 403.079Z" fill="#693CC5" fill-rule="nonzero" fill-opacity="1"/><path d="M284.76 375.051 292.12 375.051 292.12 385.76 284.76 385.76Z" fill="#693CC5" fill-rule="nonzero" fill-opacity="1"/><path d="M284.76 360.221 292.12 360.221 292.12 371.04 284.76 371.04Z" fill="#693CC5" fill-rule="nonzero" fill-opacity="1"/><path d="M289.5 350.044 296.76 342.784 301.964 347.988 294.704 355.248Z" fill="#693CC5" fill-rule="nonzero" fill-opacity="1"/><path d="M300.525 339.046 307.941 331.63 313.145 336.835 305.729 344.251Z" fill="#693CC5" fill-rule="nonzero" fill-opacity="1"/><path d="M251.64 415.2 244.28 415.2 244.28 332.069 225.107 312.933 230.333 307.707 251.64 329.051 251.64 415.2Z" fill="#693CC5" fill-rule="nonzero" fill-opacity="1"/><path d="M236.92 407.84 211.16 407.84 211.16 382.08 218.52 382.08 218.52 400.48 236.92 400.48 236.92 407.84Z" fill="#693CC5" fill-rule="nonzero" fill-opacity="1"/><path d="M306.84 407.84 281.08 407.84 281.08 400.48 299.48 400.48 299.48 382.08 306.84 382.08 306.84 407.84Z" fill="#693CC5" fill-rule="nonzero" fill-opacity="1"/><path d="M229.634 334.24 222.274 334.24 222.274 304.8 251.64 304.8 251.64 312.16 229.634 312.16 229.634 334.24Z" fill="#693CC5" fill-rule="nonzero" fill-opacity="1"/><path d="M295.8 334.24 288.44 334.24 288.44 312.16 266.434 312.16 266.434 304.8 295.8 304.8 295.8 334.24Z" fill="#693CC5" fill-rule="nonzero" fill-opacity="1"/><path d="M266.36 404.16 273.72 404.16 273.72 415.2 266.36 415.2Z" fill="#693CC5" fill-rule="nonzero" fill-opacity="1"/><path d="M266.36 389.44 273.72 389.44 273.72 400.48 266.36 400.48Z" fill="#693CC5" fill-rule="nonzero" fill-opacity="1"/><path d="M266.36 374.72 273.72 374.72 273.72 385.76 266.36 385.76Z" fill="#693CC5" fill-rule="nonzero" fill-opacity="1"/><path d="M266.36 360 273.72 360 273.72 371.04 266.36 371.04Z" fill="#693CC5" fill-rule="nonzero" fill-opacity="1"/><path d="M266.36 345.28 273.72 345.28 273.72 356.32 266.36 356.32Z" fill="#693CC5" fill-rule="nonzero" fill-opacity="1"/><path d="M266.36 330.56 273.72 330.56 273.72 341.6 266.36 341.6Z" fill="#693CC5" fill-rule="nonzero" fill-opacity="1"/><path d="M270.881 322.66 278.687 314.854 283.892 320.058 276.085 327.865Z" fill="#693CC5" fill-rule="nonzero" fill-opacity="1"/><path d="M299.48 360 310.52 360 310.52 367.36 299.48 367.36Z" fill="#693CC5" fill-rule="nonzero" fill-opacity="1"/><path d="M314.2 360 325.24 360 325.24 367.36 314.2 367.36Z" fill="#693CC5" fill-rule="nonzero" fill-opacity="1"/><path d="M317.88 378.4C316.902 378.406 315.962 378.022 315.267 377.333 313.824 375.902 313.815 373.572 315.246 372.129 315.253 372.121 315.26 372.114 315.267 372.107L326.307 361.067C327.75 359.624 330.09 359.624 331.533 361.067 332.976 362.51 332.976 364.85 331.533 366.293L320.493 377.333C319.798 378.022 318.858 378.406 317.88 378.4Z" fill="#693CC5" fill-rule="nonzero" fill-opacity="1"/><path d="M328.92 367.36C327.942 367.366 327.002 366.982 326.307 366.293L315.267 355.253C313.824 353.81 313.824 351.47 315.267 350.027 316.71 348.584 319.05 348.584 320.493 350.027L331.533 361.067C332.976 362.498 332.985 364.828 331.554 366.271 331.547 366.279 331.54 366.286 331.533 366.293 330.838 366.982 329.898 367.366 328.92 367.36Z" fill="#693CC5" fill-rule="nonzero" fill-opacity="1"/><path d="M189.08 360 218.52 360 218.52 367.36 189.08 367.36Z" fill="#693CC5" fill-rule="nonzero" fill-opacity="1"/><path d="M200.12 378.4C199.142 378.406 198.202 378.022 197.507 377.333L186.467 366.293C185.024 364.85 185.024 362.51 186.467 361.067 187.91 359.624 190.25 359.624 191.693 361.067L202.733 372.107C204.176 373.538 204.185 375.868 202.754 377.311 202.747 377.319 202.74 377.326 202.733 377.333 202.038 378.022 201.098 378.406 200.12 378.4Z" fill="#693CC5" fill-rule="nonzero" fill-opacity="1"/><path d="M189.08 367.36C188.102 367.366 187.162 366.982 186.467 366.293 185.024 364.862 185.015 362.532 186.446 361.089 186.453 361.081 186.46 361.074 186.467 361.067L197.507 350.027C198.95 348.584 201.29 348.584 202.733 350.027 204.176 351.47 204.176 353.81 202.733 355.253L191.693 366.293C190.998 366.982 190.058 367.366 189.08 367.36Z" fill="#693CC5" fill-rule="nonzero" fill-opacity="1"/></g></g></g></g></svg>