<?xml version="1.0" encoding="UTF-8"?>
<svg xmlns="http://www.w3.org/2000/svg" xmlns:xlink="http://www.w3.org/1999/xlink" width="80" height="80" viewBox="0 0 80 80" version="1.1">
<defs>
<linearGradient id="linear0" gradientUnits="userSpaceOnUse" x1="0" y1="1" x2="1" y2="0" gradientTransform="matrix(80,0,0,80,0,0)">
<stop offset="0" style="stop-color:rgb(74.117649%,3.137255%,8.627451%);stop-opacity:1;"/>
<stop offset="1" style="stop-color:rgb(100%,32.156864%,32.156864%);stop-opacity:1;"/>
</linearGradient>
</defs>
<g id="surface1">
<rect x="0" y="0" width="80" height="80" style="fill:url(#linear0);stroke:none;"/>
<path style=" stroke:none;fill-rule:evenodd;fill:rgb(100%,100%,100%);fill-opacity:1;" d="M 16.277344 42 L 14 42 L 14 40 L 16.277344 40 C 16.460938 35.152344 18.078125 30.46875 20.921875 26.539062 L 22.542969 27.710938 C 19.945312 31.300781 18.460938 35.574219 18.277344 40 L 22 40 L 22 42 L 18.277344 42 C 18.460938 46.472656 19.914062 50.730469 22.542969 54.359375 L 20.921875 55.53125 C 18.0625 51.582031 16.445312 46.871094 16.277344 42 Z M 55.492188 61.113281 C 51.554688 63.964844 46.859375 65.582031 42 65.757812 L 42 68 L 40 68 L 40 65.757812 C 35.140625 65.582031 30.441406 63.964844 26.503906 61.113281 L 27.675781 59.492188 C 31.273438 62.097656 35.5625 63.582031 40 63.757812 L 40 60 L 42 60 L 42 63.757812 C 46.4375 63.582031 50.726562 62.097656 54.320312 59.492188 Z M 26.503906 20.957031 C 30.441406 18.105469 35.140625 16.488281 40 16.3125 L 40 14 L 42 14 L 42 16.3125 C 46.886719 16.507812 51.535156 18.089844 55.492188 20.957031 L 54.320312 22.578125 C 50.722656 19.972656 46.4375 18.492188 42 18.3125 L 42 22 L 40 22 L 40 18.3125 C 35.539062 18.507812 31.296875 19.957031 27.675781 22.578125 Z M 68 40 L 68 42 L 65.722656 42 C 65.554688 46.871094 63.933594 51.582031 61.074219 55.53125 L 59.457031 54.359375 C 62.066406 50.75 63.550781 46.449219 63.722656 42 L 60 42 L 60 40 L 63.71875 40 C 63.519531 35.550781 62.066406 31.320312 59.457031 27.710938 L 61.074219 26.539062 C 63.921875 30.46875 65.535156 35.152344 65.71875 40 Z M 55.410156 25.207031 L 62.972656 17.648438 L 64.386719 19.0625 L 56.824219 26.625 Z M 26.585938 56.863281 L 19.027344 64.421875 L 17.613281 63.007812 L 25.171875 55.449219 Z M 28.683594 30.097656 L 14.371094 15.789062 L 15.785156 14.375 L 30.097656 28.683594 Z M 54.710938 53.296875 L 67.625 66.210938 L 66.210938 67.625 L 53.296875 54.710938 Z M 31.882812 42.726562 C 31.964844 42.578125 32.054688 42.433594 32.148438 42.289062 C 34.003906 39.371094 33.398438 35.351562 32.804688 33.039062 C 34.441406 34.007812 35.910156 36.21875 36.449219 37.214844 C 36.625 37.574219 37.007812 37.78125 37.40625 37.734375 C 37.800781 37.707031 38.140625 37.445312 38.273438 37.070312 C 39.933594 32.355469 38.996094 28.859375 37.808594 26.652344 C 39.304688 27.453125 40.503906 28.710938 41.226562 30.246094 C 42.769531 33.453125 42.429688 37.835938 40.335938 41.683594 C 37.453125 46.980469 38.09375 52.542969 38.75 55.441406 C 37.179688 54.789062 35.679688 53.972656 34.277344 53.011719 C 30.96875 50.707031 29.914062 46.191406 31.882812 42.726562 Z M 46.558594 42.414062 C 46.492188 42.820312 46.6875 43.226562 47.042969 43.433594 C 47.402344 43.644531 47.851562 43.609375 48.171875 43.351562 C 48.261719 43.28125 50.070312 41.785156 50.902344 38.144531 C 51.980469 39.613281 53.195312 42.6875 51.699219 48.480469 C 50.246094 54.109375 43.316406 55.640625 40.964844 56.003906 C 40.386719 53.953125 39.152344 48.042969 42.09375 42.636719 C 44.214844 38.734375 44.730469 34.304688 43.558594 30.71875 C 45.632812 33.015625 47.472656 36.71875 46.558594 42.414062 Z M 30.144531 41.738281 C 27.671875 46.09375 28.984375 51.765625 33.132812 54.652344 C 35.019531 55.96875 37.304688 57.109375 39.925781 58.046875 C 40.03125 58.085938 40.148438 58.105469 40.261719 58.105469 C 40.28125 58.105469 40.300781 58.097656 40.320312 58.09375 L 40.320312 58.105469 C 40.777344 58.066406 51.53125 57.132812 53.636719 48.980469 C 56.34375 38.480469 50.9375 35.378906 50.707031 35.25 C 50.414062 35.089844 50.058594 35.085938 49.761719 35.242188 C 49.464844 35.398438 49.265625 35.691406 49.230469 36.023438 C 49.148438 36.839844 48.992188 37.644531 48.761719 38.429688 C 48.222656 29.816406 41.414062 26.359375 40.113281 25.773438 C 38.757812 24.734375 37.113281 24.023438 35.203125 23.683594 C 34.757812 23.613281 34.320312 23.84375 34.132812 24.253906 C 33.941406 24.660156 34.046875 25.144531 34.390625 25.4375 C 34.554688 25.574219 38.03125 28.585938 36.953125 34.3125 C 35.71875 32.652344 33.691406 30.566406 31.304688 30.566406 C 30.972656 30.566406 30.664062 30.730469 30.480469 31 C 30.292969 31.273438 30.253906 31.621094 30.371094 31.929688 C 30.394531 31.984375 32.613281 37.832031 30.460938 41.214844 C 30.347656 41.386719 30.242188 41.5625 30.144531 41.738281 Z M 30.144531 41.738281 "/>
</g>
</svg>
