<svg width="76" height="76" xmlns="http://www.w3.org/2000/svg" xmlns:xlink="http://www.w3.org/1999/xlink" xml:space="preserve" overflow="hidden"><defs><clipPath id="clip0"><rect x="360" y="174" width="76" height="76"/></clipPath><clipPath id="clip1"><rect x="361" y="175" width="75" height="75"/></clipPath><clipPath id="clip2"><rect x="361" y="175" width="75" height="75"/></clipPath><clipPath id="clip3"><rect x="361" y="175" width="75" height="75"/></clipPath><linearGradient x1="345.47" y1="265.53" x2="451.53" y2="159.47" gradientUnits="userSpaceOnUse" spreadMethod="pad" id="fill4"><stop offset="0" stop-color="#1B660F" stop-opacity="1"/><stop offset="1" stop-color="#6CAE3E" stop-opacity="1"/></linearGradient></defs><g clip-path="url(#clip0)" transform="translate(-360 -174)"><g clip-path="url(#clip1)"><g clip-path="url(#clip2)"><g clip-path="url(#clip3)"><path d="M361 175 436 175 436 250 361 250Z" fill="url(#fill4)" fill-rule="nonzero"/><path d="M422.43 215.06C422.14 213.49 420.36 212.38 419.14 211.59 418.75 211.34 417.68 210.94 417.59 210.59 417.584 210.34 417.618 210.09 417.69 209.85L418.69 202.66C418.98 200.55 419.26 198.44 419.55 196.33 419.81 194.39 418.88 193.09 417.3 192 414.08 189.77 409.88 188.87 406.09 188.25 401.337 187.474 396.504 187.316 391.71 187.78 387.399 188.096 383.167 189.109 379.18 190.78 377.04 191.78 374.24 193.34 374.59 196.07 375.59 204.19 376.77 212.29 377.86 220.4 378.36 224.11 378.86 227.82 379.36 231.53 379.524 233.001 380.463 234.271 381.82 234.86 384.92 236.54 388.76 237.02 392.22 237.34 396.82 237.755 401.455 237.55 406 236.73 408.88 236.2 414.24 235.33 414.7 231.73 415.27 227.27 415.9 222.81 416.5 218.36L416.72 217C418.35 217.39 423 218.22 422.43 215.06ZM397.05 189.5C403.05 189.5 409.92 190.18 415.3 193.14 416.13 193.6 418.06 194.63 417.48 195.85 416.9 197.07 415.1 197.68 414 198.12 412.429 198.7 410.814 199.152 409.17 199.47 402.032 200.884 394.701 201.036 387.51 199.92 384.263 199.585 381.104 198.66 378.19 197.19 377.47 196.78 376.28 196.04 376.61 195.06 376.871 194.533 377.282 194.095 377.79 193.8 379.986 192.387 382.429 191.4 384.99 190.89 388.939 189.942 392.989 189.475 397.05 189.5ZM412.73 231.65C412.58 232.82 410.65 233.4 409.73 233.73 407.82 234.369 405.85 234.811 403.85 235.05 399.413 235.64 394.917 235.64 390.48 235.05 387.701 234.834 384.987 234.098 382.48 232.88 381.784 232.578 381.32 231.908 381.28 231.15 380.28 223.22 379.14 215.29 378.07 207.36L376.91 198.76C379.183 200.015 381.651 200.88 384.21 201.32 386.951 201.878 389.728 202.242 392.52 202.41 398 202.803 403.507 202.497 408.91 201.5 411.789 201.086 414.57 200.158 417.12 198.76L415 214.46C409.933 212.79 404.982 210.786 400.18 208.46 399.969 208.38 399.765 208.283 399.57 208.17 399.3 207.97 399.37 208.07 399.24 207.76 398.99 207.19 398.93 206.76 398.4 206.29 397.43 205.513 396.014 205.67 395.237 206.64 394.46 207.61 394.617 209.026 395.587 209.802 396.031 210.158 396.593 210.332 397.16 210.29 397.505 210.233 397.841 210.132 398.16 209.99 398.55 209.87 398.55 209.89 398.96 210.08 403.823 212.451 408.834 214.509 413.96 216.24 414.73 216.49 414.72 216.24 414.72 216.88 414.688 217.367 414.624 217.851 414.53 218.33L413.89 223.1ZM397.3 208C397.3 208.27 396.92 208.24 396.82 208.07 396.72 207.9 397.3 207.62 397.3 208ZM417 215 417.3 212.79C418.3 213.36 420 214.22 420.45 215.36 419.47 215.76 417.92 215.23 417 215Z" fill="#FFFFFF" fill-rule="nonzero" fill-opacity="1"/></g></g></g></g></svg>