<svg width="98" height="97" xmlns="http://www.w3.org/2000/svg" xmlns:xlink="http://www.w3.org/1999/xlink" xml:space="preserve" overflow="hidden"><defs><clipPath id="clip0"><rect x="242" y="165" width="98" height="97"/></clipPath><clipPath id="clip1"><rect x="243" y="166" width="96" height="96"/></clipPath><clipPath id="clip2"><rect x="243" y="166" width="96" height="96"/></clipPath><clipPath id="clip3"><rect x="243" y="166" width="96" height="96"/></clipPath></defs><g clip-path="url(#clip0)" transform="translate(-242 -165)"><g clip-path="url(#clip1)"><g clip-path="url(#clip2)"><g clip-path="url(#clip3)"><path d="M332.83 222.61 314.39 219.15 314.39 219.25 313.06 220C306.629 223.346 299.965 226.224 293.12 228.61 292.12 228.93 290.9 229.3 289.5 229.7 292.75 230.87 312.21 237.7 321.14 235.7 327.14 234.36 331.76 229.03 334.14 225.78 334.798 224.893 334.613 223.64 333.726 222.982 333.462 222.786 333.155 222.659 332.83 222.61Z" fill="#ED7D31" fill-rule="nonzero" fill-opacity="1"/><path d="M266 233.5C275.38 231.29 286.83 228.5 292.18 226.76L292.18 226.76 292.98 226.5 294.11 226.11C295.31 225.68 296.51 225.23 297.69 224.77L298.46 224.46 299.25 224.14 299.52 224.03C306.4 221.2 312.1 218.19 312.1 218.19 308.28 201.07 293.6 190.61 275.1 193.74 274.542 191.97 272.699 190.943 270.9 191.4L269.2 191.84C267.376 192.321 266.262 194.161 266.68 196 251.93 201.75 246.71 214.3 250 229L251.31 234.85C251.549 235.926 252.613 236.606 253.69 236.37 255.86 235.88 259.69 235.01 264.11 233.97L266.11 233.51ZM274.35 194.12C279.914 196.992 284.511 201.436 287.57 206.9 290.282 211.644 292.235 216.783 293.36 222.13L291.72 222.7 291.45 222.79C290.381 217.568 288.491 212.549 285.85 207.92 282.06 201.52 277.09 197.15 271.24 194.92ZM263.26 230C261.5 220.31 261.83 211.07 264.26 203.35 265.09 200.741 266.214 198.235 267.61 195.88L270.45 195.14C268.596 197.864 267.16 200.85 266.19 204 263.84 211.38 263.52 220.25 265.19 229.58Z" fill="#ED7D31" fill-rule="nonzero" fill-opacity="1"/></g></g></g></g></svg>