<?xml version="1.0" encoding="UTF-8"?>
<svg xmlns="http://www.w3.org/2000/svg" xmlns:xlink="http://www.w3.org/1999/xlink" width="80" height="80" viewBox="0 0 80 80" version="1.1">
<defs>
<clipPath id="clip1">
  <path d="M 0.359375 0.359375 L 80 0.359375 L 80 80 L 0.359375 80 Z M 0.359375 0.359375 "/>
</clipPath>
<linearGradient id="linear0" gradientUnits="userSpaceOnUse" x1="97.031197" y1="537.968994" x2="410.968994" y2="224.031006" gradientTransform="matrix(0.358744,0,0,0.358744,-50.941704,-96.502242)">
<stop offset="0" style="stop-color:rgb(74.117649%,3.137255%,8.627451%);stop-opacity:1;"/>
<stop offset="1" style="stop-color:rgb(100%,32.156864%,32.156864%);stop-opacity:1;"/>
</linearGradient>
</defs>
<g id="surface1">
<g clip-path="url(#clip1)" clip-rule="nonzero">
<path style=" stroke:none;fill-rule:nonzero;fill:url(#linear0);" d="M 0.359375 0.359375 L 80 0.359375 L 80 80 L 0.359375 80 Z M 0.359375 0.359375 "/>
</g>
<path style=" stroke:none;fill-rule:nonzero;fill:rgb(100%,100%,100%);fill-opacity:1;" d="M 45.246094 66.726562 L 35.113281 66.726562 C 34.820312 66.726562 34.539062 66.609375 34.339844 66.398438 C 34.136719 66.183594 34.035156 65.894531 34.050781 65.601562 L 34.242188 62.265625 C 32.324219 61.75 30.484375 60.988281 28.765625 59.996094 L 26.535156 62.488281 C 26.339844 62.707031 26.0625 62.832031 25.769531 62.839844 C 25.480469 62.847656 25.199219 62.734375 24.996094 62.53125 L 17.828125 55.363281 C 17.621094 55.160156 17.511719 54.878906 17.519531 54.589844 C 17.523438 54.296875 17.652344 54.019531 17.867188 53.824219 L 20.363281 51.59375 C 19.375 49.875 18.613281 48.03125 18.101562 46.113281 L 14.757812 46.304688 C 14.464844 46.324219 14.175781 46.222656 13.960938 46.019531 C 13.75 45.816406 13.628906 45.539062 13.632812 45.246094 L 13.632812 35.113281 C 13.628906 34.820312 13.75 34.539062 13.960938 34.339844 C 14.175781 34.136719 14.464844 34.035156 14.757812 34.050781 L 18.113281 34.242188 C 18.625 32.328125 19.390625 30.488281 20.386719 28.773438 L 17.867188 26.535156 C 17.652344 26.339844 17.523438 26.0625 17.519531 25.769531 C 17.511719 25.480469 17.621094 25.199219 17.828125 24.996094 L 24.996094 17.828125 C 25.199219 17.621094 25.480469 17.511719 25.769531 17.519531 C 26.0625 17.523438 26.339844 17.652344 26.535156 17.867188 L 28.773438 20.375 C 30.492188 19.386719 32.328125 18.625 34.242188 18.113281 L 34.050781 14.757812 C 34.035156 14.464844 34.136719 14.175781 34.339844 13.960938 C 34.539062 13.75 34.820312 13.628906 35.113281 13.632812 L 45.246094 13.632812 C 45.539062 13.628906 45.816406 13.75 46.019531 13.960938 C 46.222656 14.175781 46.324219 14.464844 46.304688 14.757812 L 46.113281 18.113281 C 48.027344 18.628906 49.867188 19.394531 51.582031 20.386719 L 53.824219 17.867188 C 54.019531 17.652344 54.296875 17.523438 54.589844 17.519531 C 54.878906 17.515625 55.15625 17.628906 55.363281 17.828125 L 62.53125 24.996094 C 62.734375 25.199219 62.847656 25.480469 62.839844 25.769531 C 62.832031 26.0625 62.707031 26.339844 62.488281 26.535156 L 59.984375 28.765625 C 60.976562 30.484375 61.738281 32.324219 62.253906 34.242188 L 65.601562 34.050781 C 65.894531 34.035156 66.183594 34.136719 66.398438 34.339844 C 66.609375 34.539062 66.726562 34.820312 66.726562 35.113281 L 66.726562 45.246094 C 66.726562 45.539062 66.609375 45.816406 66.398438 46.019531 C 66.179688 46.214844 65.894531 46.316406 65.601562 46.304688 L 62.253906 46.113281 C 61.746094 48.035156 60.980469 49.875 59.984375 51.59375 L 62.488281 53.824219 C 62.707031 54.019531 62.832031 54.296875 62.839844 54.589844 C 62.847656 54.878906 62.734375 55.160156 62.53125 55.363281 L 55.363281 62.53125 C 55.160156 62.734375 54.878906 62.847656 54.589844 62.839844 C 54.296875 62.832031 54.019531 62.707031 53.824219 62.488281 L 51.605469 59.996094 C 49.882812 60.992188 48.039062 61.753906 46.113281 62.265625 L 46.304688 65.601562 C 46.324219 65.894531 46.222656 66.183594 46.019531 66.398438 C 45.816406 66.609375 45.539062 66.726562 45.246094 66.726562 Z M 36.238281 64.601562 L 44.117188 64.601562 L 43.894531 61.511719 C 43.882812 61.007812 44.230469 60.5625 44.722656 60.449219 C 47.039062 59.914062 49.246094 58.984375 51.242188 57.699219 C 51.683594 57.421875 52.257812 57.503906 52.601562 57.890625 L 54.664062 60.207031 L 60.238281 54.632812 L 57.914062 52.507812 C 57.5625 52.179688 57.476562 51.65625 57.699219 51.234375 C 58.960938 49.25 59.867188 47.0625 60.375 44.765625 C 60.488281 44.273438 60.933594 43.925781 61.4375 43.9375 L 64.550781 44.117188 L 64.550781 36.238281 L 61.492188 36.460938 C 60.984375 36.476562 60.539062 36.128906 60.429688 35.632812 C 59.898438 33.324219 58.972656 31.125 57.699219 29.125 C 57.421875 28.6875 57.503906 28.113281 57.890625 27.765625 L 60.21875 25.695312 L 54.640625 20.121094 L 52.519531 22.457031 C 52.183594 22.8125 51.648438 22.898438 51.222656 22.660156 C 49.238281 21.40625 47.054688 20.503906 44.765625 19.980469 C 44.273438 19.871094 43.925781 19.425781 43.9375 18.921875 L 44.117188 15.796875 L 36.238281 15.796875 L 36.460938 18.878906 C 36.476562 19.382812 36.128906 19.828125 35.632812 19.941406 C 33.328125 20.464844 31.128906 21.386719 29.136719 22.660156 C 28.695312 22.933594 28.121094 22.855469 27.777344 22.46875 L 25.652344 20.140625 L 20.078125 25.714844 L 22.414062 27.839844 C 22.785156 28.164062 22.886719 28.699219 22.660156 29.136719 C 21.398438 31.117188 20.492188 33.300781 19.972656 35.59375 C 19.859375 36.085938 19.414062 36.433594 18.910156 36.421875 L 15.796875 36.238281 L 15.796875 44.117188 L 18.855469 43.894531 C 19.363281 43.882812 19.808594 44.230469 19.917969 44.722656 C 20.449219 47.035156 21.375 49.238281 22.660156 51.234375 C 22.933594 51.671875 22.855469 52.246094 22.46875 52.59375 L 20.152344 54.714844 L 25.726562 60.292969 L 27.796875 57.976562 C 28.117188 57.578125 28.671875 57.460938 29.125 57.699219 C 31.113281 58.957031 33.296875 59.867188 35.59375 60.386719 C 36.085938 60.5 36.433594 60.941406 36.421875 61.449219 Z M 40.179688 56.300781 C 27.585938 56.300781 27.4375 42.898438 27.4375 42.761719 L 27.4375 29.03125 C 27.4375 28.601562 27.699219 28.214844 28.09375 28.054688 L 39.777344 23.230469 C 40.03125 23.117188 40.328125 23.117188 40.582031 23.230469 L 52.265625 28.054688 C 52.660156 28.214844 52.917969 28.601562 52.921875 29.03125 L 52.921875 42.835938 C 52.921875 42.929688 52.773438 56.300781 40.179688 56.300781 Z M 29.558594 29.75 L 29.558594 42.761719 C 29.558594 43.226562 29.71875 54.175781 40.179688 54.175781 C 50.640625 54.175781 50.796875 43.257812 50.796875 42.835938 L 50.796875 29.785156 L 40.179688 25.398438 Z M 40.179688 51.902344 C 33.4375 51.902344 31.769531 43.578125 31.683594 43.214844 C 31.679688 43.152344 31.679688 43.089844 31.683594 43.023438 L 31.683594 32.566406 C 31.683594 32.128906 31.949219 31.738281 32.351562 31.578125 L 39.785156 28.574219 C 40.039062 28.472656 40.320312 28.472656 40.570312 28.574219 L 48.003906 31.578125 C 48.410156 31.738281 48.675781 32.128906 48.675781 32.566406 L 48.675781 43.058594 C 48.679688 43.121094 48.679688 43.183594 48.675781 43.25 C 48.589844 43.609375 46.921875 51.933594 40.179688 51.933594 Z M 41.242188 31.152344 L 41.242188 49.703125 C 45.105469 48.886719 46.390625 43.683594 46.550781 42.941406 L 46.550781 33.277344 Z M 33.808594 42.960938 C 33.976562 43.703125 35.273438 48.898438 39.117188 49.726562 L 39.117188 31.152344 L 33.808594 33.277344 Z M 33.808594 42.960938 "/>
</g>
</svg>
