<?xml version="1.0" encoding="UTF-8"?>
<svg xmlns="http://www.w3.org/2000/svg" xmlns:xlink="http://www.w3.org/1999/xlink" width="50" height="50" viewBox="0 0 50 50" version="1.1">
<g id="surface1">
<path style=" stroke:none;fill-rule:nonzero;fill:rgb(92.941177%,49.019608%,19.215687%);fill-opacity:1;" d="M 33.503906 15.625 C 33.503906 20.226562 29.8125 23.957031 25.257812 23.957031 C 20.703125 23.957031 17.011719 20.226562 17.011719 15.625 C 17.011719 11.023438 20.703125 7.292969 25.257812 7.292969 C 29.8125 7.292969 33.503906 11.023438 33.503906 15.625 Z M 33.503906 15.625 "/>
<path style=" stroke:none;fill-rule:nonzero;fill:rgb(92.941177%,49.019608%,19.215687%);fill-opacity:1;" d="M 41.753906 42.707031 L 41.753906 34.375 C 41.753906 33.125 41.132812 31.875 40.101562 31.042969 C 37.835938 29.167969 34.949219 27.917969 32.0625 27.082031 C 30 26.457031 27.730469 26.042969 25.257812 26.042969 C 22.988281 26.042969 20.722656 26.457031 18.453125 27.082031 C 15.566406 27.917969 12.679688 29.375 10.414062 31.042969 C 9.382812 31.875 8.761719 33.125 8.761719 34.375 L 8.761719 42.707031 Z M 41.753906 42.707031 "/>
</g>
</svg>
