<svg width="87" height="86" xmlns="http://www.w3.org/2000/svg" xmlns:xlink="http://www.w3.org/1999/xlink" xml:space="preserve" overflow="hidden"><defs><clipPath id="clip0"><rect x="302" y="332" width="87" height="86"/></clipPath><clipPath id="clip1"><rect x="303" y="332" width="86" height="86"/></clipPath><clipPath id="clip2"><rect x="303" y="332" width="86" height="86"/></clipPath><clipPath id="clip3"><rect x="303" y="332" width="86" height="86"/></clipPath></defs><g clip-path="url(#clip0)" transform="translate(-302 -332)"><g clip-path="url(#clip1)"><g clip-path="url(#clip2)"><g clip-path="url(#clip3)"><path d="M370.183 399.286 357.128 399.286C356.461 399.291 355.85 398.909 355.563 398.306L337.262 358.987 329.866 358.987C328.916 358.987 328.146 358.217 328.146 357.267L328.146 345.966C328.146 345.016 328.916 344.246 329.866 344.246L346.189 344.246C346.849 344.258 347.443 344.646 347.72 345.244L365.986 384.563 370.183 384.563C371.133 384.563 371.903 385.333 371.903 386.283L371.903 397.566C371.903 398.516 371.133 399.286 370.183 399.286ZM358.143 395.846 368.463 395.846 368.463 388.003 364.92 388.003C364.248 388.005 363.637 387.615 363.355 387.006L345.106 347.686 331.604 347.686 331.604 355.547 338.363 355.547C339.035 355.545 339.646 355.935 339.928 356.544Z" fill="#D86613" fill-rule="nonzero" fill-opacity="1"/><path d="M334.7 399.286 320.733 399.286C319.783 399.284 319.015 398.511 319.018 397.562 319.019 397.307 319.076 397.056 319.185 396.827L333.788 366.245C334.072 365.648 334.674 365.267 335.336 365.265 335.994 365.263 336.595 365.637 336.884 366.228L343.884 380.676C344.107 381.144 344.107 381.687 343.884 382.155L336.248 398.306C335.963 398.903 335.361 399.285 334.7 399.286ZM323.468 395.846 333.599 395.846 340.479 381.433 335.319 370.958Z" fill="#D86613" fill-rule="nonzero" fill-opacity="1"/><path d="M346 415.42C323.677 415.42 305.58 397.323 305.58 375 305.58 352.677 323.677 334.58 346 334.58 368.323 334.58 386.42 352.677 386.42 375 386.401 397.315 368.315 415.401 346 415.42ZM346 338.02C325.577 338.02 309.02 354.577 309.02 375 309.02 395.423 325.577 411.98 346 411.98 366.423 411.98 382.98 395.423 382.98 375 382.952 354.588 366.412 338.048 346 338.02Z" fill="#D86613" fill-rule="nonzero" fill-opacity="1"/><path d="M122.4-2448.38 667.64-2448.38 687.145 313.94 406.561 313.94 406.664 438.64 100.04 438.64 122.4-2448.38Z" stroke="#FF9900" stroke-width="5.16" stroke-linecap="butt" stroke-linejoin="miter" stroke-miterlimit="10" stroke-opacity="1" fill="none" fill-rule="nonzero"/></g></g></g></g></svg>