<?xml version="1.0" encoding="UTF-8"?>
<svg xmlns="http://www.w3.org/2000/svg" xmlns:xlink="http://www.w3.org/1999/xlink" width="80" height="80" viewBox="0 0 80 80" version="1.1">
<defs>
<clipPath id="clip1">
  <path d="M 0.363281 0.359375 L 80 0.359375 L 80 79.640625 L 0.363281 79.640625 Z M 0.363281 0.359375 "/>
</clipPath>
<linearGradient id="linear0" gradientUnits="userSpaceOnUse" x1="-45.347599" y1="264.347992" x2="264.347992" y2="-45.347599" gradientTransform="matrix(0.363636,0,0,0.362007,0.363636,0.36036)">
<stop offset="0" style="stop-color:rgb(69.01961%,3.137255%,30.19608%);stop-opacity:1;"/>
<stop offset="1" style="stop-color:rgb(100%,30.980393%,54.509807%);stop-opacity:1;"/>
</linearGradient>
</defs>
<g id="surface1">
<g clip-path="url(#clip1)" clip-rule="nonzero">
<path style=" stroke:none;fill-rule:nonzero;fill:url(#linear0);" d="M 0.363281 0.359375 L 80 0.359375 L 80 79.640625 L 0.363281 79.640625 Z M 0.363281 0.359375 "/>
</g>
<path style=" stroke:none;fill-rule:nonzero;fill:rgb(100%,100%,100%);fill-opacity:1;" d="M 33.8125 51.097656 L 22.132812 51.097656 C 20.949219 51.078125 19.796875 50.734375 18.796875 50.105469 C 15.523438 48.109375 13.558594 44.53125 13.636719 40.707031 C 13.414062 36.277344 16.265625 32.273438 20.539062 31.015625 C 20.539062 30.742188 20.539062 30.464844 20.539062 30.191406 C 20.65625 24.714844 23.871094 19.769531 28.839844 17.421875 C 34.210938 15.058594 40.488281 16.296875 44.546875 20.519531 C 45.878906 21.867188 46.957031 23.441406 47.730469 25.167969 C 48.835938 24.28125 50.214844 23.796875 51.640625 23.796875 C 54.527344 23.796875 57.777344 25.972656 58.371094 30.75 C 61.101562 31.394531 66.707031 33.617188 66.707031 40.804688 C 66.894531 44.476562 64.941406 47.929688 61.683594 49.671875 L 60.621094 47.824219 C 63.1875 46.441406 64.71875 43.703125 64.550781 40.804688 C 64.550781 34.589844 59.378906 33.042969 57.117188 32.664062 C 56.835938 32.613281 56.589844 32.453125 56.425781 32.21875 C 56.273438 32 56.207031 31.726562 56.246094 31.460938 C 55.9375 27.621094 53.6875 25.910156 51.574219 25.910156 C 50.210938 25.921875 48.933594 26.585938 48.144531 27.695312 C 47.914062 28.011719 47.527344 28.175781 47.136719 28.117188 C 46.75 28.058594 46.425781 27.789062 46.296875 27.421875 C 45.605469 25.390625 44.464844 23.542969 42.964844 22.007812 C 39.523438 18.453125 34.222656 17.410156 29.679688 19.386719 C 25.511719 21.40625 22.808594 25.558594 22.660156 30.167969 C 22.664062 30.65625 22.691406 31.144531 22.746094 31.628906 C 22.816406 32.183594 22.441406 32.699219 21.886719 32.800781 C 18.15625 33.558594 15.546875 36.921875 15.75 40.707031 C 15.660156 43.808594 17.253906 46.71875 19.921875 48.320312 C 20.582031 48.738281 21.347656 48.96875 22.132812 48.984375 L 33.8125 48.984375 Z M 33.8125 51.097656 "/>
<path style=" stroke:none;fill-rule:nonzero;fill:rgb(100%,100%,100%);fill-opacity:1;" d="M 65.546875 57.441406 L 58.011719 49.90625 C 60.539062 44.246094 57.984375 37.617188 52.300781 35.097656 C 46.617188 32.578125 39.957031 35.121094 37.425781 40.78125 C 34.894531 46.441406 37.453125 53.070312 43.136719 55.589844 C 46.246094 56.96875 49.816406 56.871094 52.847656 55.328125 L 60.28125 62.726562 C 60.992188 63.414062 61.945312 63.796875 62.9375 63.785156 C 63.925781 63.796875 64.875 63.417969 65.582031 62.726562 C 67.039062 61.273438 67.035156 58.914062 65.574219 57.464844 C 65.5625 57.457031 65.558594 57.449219 65.546875 57.441406 Z M 47.722656 54.449219 C 42.683594 54.449219 38.601562 50.382812 38.601562 45.371094 C 38.601562 40.355469 42.683594 36.289062 47.722656 36.289062 C 52.757812 36.289062 56.84375 40.355469 56.84375 45.371094 C 56.84375 50.382812 52.757812 54.449219 47.722656 54.449219 Z M 64.074219 61.195312 C 63.429688 61.800781 62.421875 61.800781 61.777344 61.195312 L 54.707031 54.152344 C 55.570312 53.480469 56.328125 52.683594 56.957031 51.785156 L 64.074219 58.910156 C 64.699219 59.542969 64.699219 60.5625 64.074219 61.195312 Z M 64.074219 61.195312 "/>
<path style=" stroke:none;fill-rule:nonzero;fill:rgb(100%,100%,100%);fill-opacity:1;" d="M 50.640625 40.453125 L 49.378906 42.15625 C 47.789062 40.984375 45.546875 41.316406 44.371094 42.898438 C 43.808594 43.65625 43.570312 44.605469 43.707031 45.539062 C 43.828125 46.496094 44.335938 47.359375 45.121094 47.929688 L 43.898438 49.578125 C 41.402344 47.664062 40.933594 44.101562 42.855469 41.617188 C 44.726562 39.195312 48.183594 38.683594 50.683594 40.453125 Z M 50.640625 40.453125 "/>
</g>
</svg>
