<?xml version="1.0" encoding="UTF-8"?>
<svg xmlns="http://www.w3.org/2000/svg" xmlns:xlink="http://www.w3.org/1999/xlink" width="50" height="50" viewBox="0 0 50 50" version="1.1">
<g id="surface1">
<path style=" stroke:none;fill-rule:nonzero;fill:rgb(92.941177%,49.019608%,19.215687%);fill-opacity:1;" d="M 46.34375 29.695312 L 36.933594 27.914062 L 36.933594 27.964844 L 36.253906 28.351562 C 32.972656 30.074219 29.574219 31.558594 26.082031 32.789062 C 25.570312 32.953125 24.949219 33.144531 24.234375 33.351562 C 25.894531 33.953125 35.820312 37.472656 40.378906 36.441406 C 43.4375 35.753906 45.796875 33.003906 47.011719 31.328125 C 47.347656 30.871094 47.25 30.226562 46.800781 29.886719 C 46.664062 29.785156 46.507812 29.722656 46.34375 29.695312 Z M 46.34375 29.695312 "/>
<path style=" stroke:none;fill-rule:nonzero;fill:rgb(92.941177%,49.019608%,19.215687%);fill-opacity:1;" d="M 12.246094 35.308594 C 17.03125 34.171875 22.871094 32.730469 25.601562 31.835938 L 26.011719 31.699219 L 26.585938 31.5 C 27.199219 31.277344 27.8125 31.046875 28.414062 30.808594 L 28.804688 30.648438 L 29.210938 30.484375 L 29.347656 30.429688 C 32.855469 28.96875 35.765625 27.417969 35.765625 27.417969 C 33.816406 18.59375 26.328125 13.199219 16.886719 14.8125 C 16.601562 13.902344 15.664062 13.371094 14.746094 13.609375 L 13.878906 13.835938 C 12.945312 14.082031 12.378906 15.03125 12.59375 15.980469 C 5.066406 18.941406 2.402344 25.414062 4.082031 32.988281 L 4.75 36.003906 C 4.871094 36.558594 5.414062 36.910156 5.964844 36.789062 C 7.070312 36.535156 9.027344 36.085938 11.28125 35.550781 L 12.300781 35.3125 Z M 16.503906 15.011719 C 19.34375 16.492188 21.6875 18.78125 23.25 21.597656 C 24.632812 24.042969 25.628906 26.691406 26.203125 29.449219 L 25.367188 29.742188 L 25.230469 29.789062 C 24.683594 27.097656 23.71875 24.511719 22.371094 22.125 C 20.4375 18.824219 17.902344 16.570312 14.917969 15.421875 Z M 10.847656 33.503906 C 9.949219 28.511719 10.117188 23.746094 11.355469 19.769531 C 11.78125 18.421875 12.355469 17.132812 13.066406 15.917969 L 14.515625 15.535156 C 13.570312 16.941406 12.835938 18.480469 12.34375 20.101562 C 11.144531 23.90625 10.980469 28.480469 11.832031 33.289062 Z M 10.847656 33.503906 "/>
</g>
</svg>
