<svg width="223" height="223" xmlns="http://www.w3.org/2000/svg" xmlns:xlink="http://www.w3.org/1999/xlink" xml:space="preserve" overflow="hidden"><defs><clipPath id="clip0"><rect x="142" y="273" width="223" height="223"/></clipPath><clipPath id="clip1"><rect x="143" y="274" width="222" height="222"/></clipPath><clipPath id="clip2"><rect x="143" y="274" width="222" height="222"/></clipPath><clipPath id="clip3"><rect x="143" y="274" width="222" height="222"/></clipPath><linearGradient x1="97.0312" y1="541.969" x2="410.969" y2="228.031" gradientUnits="userSpaceOnUse" spreadMethod="pad" id="fill4"><stop offset="0" stop-color="#BD0816" stop-opacity="1"/><stop offset="1" stop-color="#FF5252" stop-opacity="1"/></linearGradient></defs><g clip-path="url(#clip0)" transform="translate(-142 -273)"><g clip-path="url(#clip1)"><g clip-path="url(#clip2)"><g clip-path="url(#clip3)"><path d="M143 274 365 274 365 496 143 496Z" fill="url(#fill4)" fill-rule="nonzero"/><path d="M323.382 430.11 288.869 399.03C303.501 370.691 292.39 335.855 264.05 321.223 235.711 306.59 200.875 317.702 186.242 346.041 171.61 374.381 182.721 409.217 211.061 423.849 229.785 433.517 252.289 432.218 269.777 420.461L304.142 451.6C309.871 457.105 318.978 456.924 324.483 451.195 329.988 445.467 329.807 436.36 324.078 430.855 323.853 430.639 323.621 430.43 323.382 430.229ZM186.038 372.568C186.038 344.074 209.137 320.975 237.631 320.975 266.125 320.975 289.224 344.074 289.224 372.568 289.224 401.027 266.179 424.112 237.72 424.161 209.226 424.21 186.088 401.151 186.038 372.657 186.038 372.627 186.038 372.598 186.038 372.568ZM319.86 446.302C316.808 449.646 311.633 449.91 308.257 446.894L274.75 416.672C278.967 413.142 282.655 409.025 285.702 404.447L319.268 434.669C322.616 437.731 322.88 442.916 319.86 446.302Z" fill="#FFFFFF" fill-rule="nonzero" fill-opacity="1"/><path d="M237.72 329.648C214.016 329.648 194.8 348.864 194.8 372.568 194.8 396.272 214.016 415.488 237.72 415.488 261.424 415.488 280.64 396.272 280.64 372.568 280.607 348.877 261.411 329.681 237.72 329.648ZM237.72 409.361C217.4 409.362 200.927 392.89 200.926 372.57 200.925 352.249 217.397 335.776 237.717 335.775 258.037 335.774 274.51 352.246 274.511 372.566 274.511 377.586 273.485 382.553 271.494 387.161L251.662 384.201C250.562 380.65 248.246 377.6 245.12 375.587L245.12 365.523C251.918 364.257 256.403 357.72 255.137 350.922 253.871 344.124 247.334 339.639 240.536 340.905 233.738 342.171 229.253 348.708 230.519 355.506 231.375 360.104 234.723 363.842 239.2 365.198L239.2 373.426C238.381 373.262 237.549 373.172 236.714 373.16 232.91 373.177 229.245 374.588 226.413 377.126L220.315 370.999C221.785 368.519 222.543 365.682 222.506 362.8 222.525 357.358 219.755 352.286 215.165 349.362L211.968 354.394C216.643 357.399 217.997 363.626 214.991 368.301 213.139 371.183 209.947 372.925 206.522 372.923L206.522 378.843C209.979 378.835 213.338 377.691 216.082 375.587L222.535 382.07C221.483 384.176 220.926 386.494 220.907 388.848 221.015 397.495 228.112 404.418 236.76 404.31 244.593 404.212 251.149 398.34 252.106 390.565L268.238 392.933C261.439 403.153 249.995 409.314 237.72 409.361ZM236.714 379.169C242.076 379.152 246.436 383.486 246.452 388.848 246.468 394.21 242.135 398.57 236.773 398.586 231.411 398.603 227.051 394.269 227.034 388.907 227.034 388.887 227.034 388.868 227.034 388.848 227.05 383.555 231.303 379.249 236.595 379.169ZM242.634 359.603C239.184 359.587 236.401 356.777 236.418 353.328 236.434 349.879 239.243 347.096 242.693 347.112 246.131 347.128 248.909 349.92 248.909 353.358 248.909 356.807 246.113 359.603 242.663 359.603 242.644 359.603 242.624 359.603 242.604 359.603Z" fill="#FFFFFF" fill-rule="nonzero" fill-opacity="1"/></g></g></g></g></svg>