<?xml version="1.0" encoding="UTF-8"?>
<svg xmlns="http://www.w3.org/2000/svg" xmlns:xlink="http://www.w3.org/1999/xlink" width="80" height="80" viewBox="0 0 80 80" version="1.1">
<defs>
<clipPath id="clip1">
  <path d="M 0.34375 0 L 79.65625 0 L 79.65625 80 L 0.34375 80 Z M 0.34375 0 "/>
</clipPath>
<linearGradient id="linear0" gradientUnits="userSpaceOnUse" x1="115.030998" y1="539.968994" x2="428.997986" y2="226.001999" gradientTransform="matrix(0.357143,0,0,0.36036,-57.142857,-98.018013)">
<stop offset="0" style="stop-color:rgb(74.117649%,3.137255%,8.627451%);stop-opacity:1;"/>
<stop offset="1" style="stop-color:rgb(100%,32.156864%,32.156864%);stop-opacity:1;"/>
</linearGradient>
</defs>
<g id="surface1">
<g clip-path="url(#clip1)" clip-rule="nonzero">
<path style=" stroke:none;fill-rule:nonzero;fill:url(#linear0);" d="M 0.34375 0 L 79.65625 0 L 79.65625 80 L 0.34375 80 Z M 0.34375 0 "/>
</g>
<path style=" stroke:none;fill-rule:nonzero;fill:rgb(100%,100%,100%);fill-opacity:1;" d="M 63.46875 20.25 L 16.53125 20.25 C 14.90625 20.28125 13.5625 21.59375 13.5625 23.25 L 13.5625 56.75 C 13.5625 58.40625 14.90625 59.71875 16.53125 59.75 L 63.46875 59.75 C 65.09375 59.71875 66.4375 58.40625 66.4375 56.75 L 66.4375 23.25 C 66.4375 21.59375 65.09375 20.28125 63.46875 20.25 Z M 64.3125 56.75 C 64.3125 57.21875 63.9375 57.59375 63.46875 57.59375 L 16.53125 57.59375 C 16.0625 57.59375 15.6875 57.21875 15.6875 56.75 L 15.6875 23.25 C 15.6875 22.78125 16.0625 22.40625 16.53125 22.40625 L 63.46875 22.40625 C 63.9375 22.40625 64.3125 22.78125 64.3125 23.25 Z M 64.3125 56.75 "/>
<path style=" stroke:none;fill-rule:nonzero;fill:rgb(100%,100%,100%);fill-opacity:1;" d="M 43.1875 34.125 L 53.75 34.125 L 53.75 36.25 L 43.1875 36.25 Z M 43.1875 34.125 "/>
<path style=" stroke:none;fill-rule:nonzero;fill:rgb(100%,100%,100%);fill-opacity:1;" d="M 57.96875 34.125 L 60.09375 34.125 L 60.09375 36.25 L 57.96875 36.25 Z M 57.96875 34.125 "/>
<path style=" stroke:none;fill-rule:nonzero;fill:rgb(100%,100%,100%);fill-opacity:1;" d="M 38.625 37.65625 C 38.4375 37.4375 38.15625 37.34375 37.875 37.34375 L 23.09375 37.34375 L 23.09375 32 C 23.125 30.78125 23.6875 29.65625 24.6875 28.96875 C 25.75 28.15625 27.03125 27.71875 28.375 27.75 C 29.75 27.71875 31.09375 28.1875 32.1875 29.0625 C 33.0625 29.78125 33.625 30.84375 33.65625 32 L 33.65625 37.34375 L 35.78125 37.34375 L 35.78125 31.5625 C 35.71875 29.875 34.90625 28.3125 33.53125 27.3125 C 32.0625 26.1875 30.25 25.5625 28.375 25.59375 C 24.28125 25.59375 20.96875 28.28125 20.96875 31.5625 L 20.96875 37.34375 L 18.84375 37.34375 C 18.28125 37.34375 17.8125 37.8125 17.8125 38.40625 L 17.8125 53.34375 C 17.8125 53.9375 18.28125 54.40625 18.84375 54.40625 L 37.875 54.40625 C 38.46875 54.40625 38.9375 53.9375 38.9375 53.34375 L 38.9375 38.40625 C 38.9375 38.125 38.84375 37.84375 38.625 37.65625 Z M 36.8125 42.65625 L 33.65625 42.65625 L 33.65625 44.8125 L 36.8125 44.8125 L 36.8125 46.9375 L 33.65625 46.9375 L 33.65625 49.0625 L 36.8125 49.0625 L 36.8125 52.25 L 19.90625 52.25 L 19.90625 39.46875 L 36.8125 39.46875 Z M 36.8125 42.65625 "/>
<path style=" stroke:none;fill-rule:nonzero;fill:rgb(100%,100%,100%);fill-opacity:1;" d="M 28.375 41.125 C 26.65625 41.15625 25.28125 42.5625 25.28125 44.28125 C 25.28125 45.59375 26.09375 46.75 27.3125 47.1875 L 27.3125 50.125 L 29.4375 50.125 L 29.4375 47.1875 C 31.03125 46.59375 31.84375 44.8125 31.25 43.1875 C 30.8125 41.96875 29.65625 41.15625 28.375 41.125 Z M 28.375 45.625 C 27.625 45.625 27.03125 45 27.03125 44.25 C 27.03125 43.53125 27.625 42.90625 28.375 42.90625 C 29.125 42.90625 29.71875 43.53125 29.71875 44.25 C 29.71875 45 29.125 45.625 28.375 45.625 Z M 28.375 45.625 "/>
<path style=" stroke:none;fill-rule:nonzero;fill:rgb(100%,100%,100%);fill-opacity:1;" d="M 43.1875 39.46875 L 50.5625 39.46875 L 50.5625 41.59375 L 43.1875 41.59375 Z M 43.1875 39.46875 "/>
<path style=" stroke:none;fill-rule:nonzero;fill:rgb(100%,100%,100%);fill-opacity:1;" d="M 54.8125 39.46875 L 60.09375 39.46875 L 60.09375 41.59375 L 54.8125 41.59375 Z M 54.8125 39.46875 "/>
<path style=" stroke:none;fill-rule:nonzero;fill:rgb(100%,100%,100%);fill-opacity:1;" d="M 43.1875 44.8125 L 56.90625 44.8125 L 56.90625 46.9375 L 43.1875 46.9375 Z M 43.1875 44.8125 "/>
</g>
</svg>
