<svg width="97" height="96" xmlns="http://www.w3.org/2000/svg" xmlns:xlink="http://www.w3.org/1999/xlink" xml:space="preserve" overflow="hidden"><defs><clipPath id="clip0"><rect x="592" y="368" width="97" height="96"/></clipPath><clipPath id="clip1"><rect x="593" y="368" width="96" height="96"/></clipPath><clipPath id="clip2"><rect x="593" y="368" width="96" height="96"/></clipPath><clipPath id="clip3"><rect x="593" y="368" width="96" height="96"/></clipPath></defs><g clip-path="url(#clip0)" transform="translate(-592 -368)"><g clip-path="url(#clip1)"><g clip-path="url(#clip2)"><g clip-path="url(#clip3)"><path d="M613 376.2 619 376.2 619 456 613 456Z" fill="#4D27AA" fill-rule="nonzero" fill-opacity="1"/><path d="M660 406 632 406 632 400 660 400 660 406ZM654 416 638.5 416 638.5 412 654 412 654 416ZM665 376 623 376.2 623 456 665 456C667.2 456 669 454.2 669 452L669 380C669 377.8 667.2 376 665 376Z" fill="#4D27AA" fill-rule="nonzero" fill-opacity="1"/></g></g></g></g></svg>