<?xml version="1.0" encoding="UTF-8"?>
<svg xmlns="http://www.w3.org/2000/svg" xmlns:xlink="http://www.w3.org/1999/xlink" width="80" height="80" viewBox="0 0 80 80" version="1.1">
<g id="surface1">
<path style=" stroke:none;fill-rule:nonzero;fill:rgb(30.19608%,15.294118%,66.666669%);fill-opacity:1;" d="M 60.40625 68.453125 L 19.59375 68.453125 L 19.59375 17.320312 L 28.570312 17.320312 L 28.570312 22.269531 L 51.429688 22.269531 L 51.429688 17.320312 L 60.40625 17.320312 Z M 40 10.722656 C 41.351562 10.722656 42.449219 11.828125 42.449219 13.195312 C 42.449219 14.5625 41.351562 15.671875 40 15.671875 C 38.648438 15.671875 37.550781 14.5625 37.550781 13.195312 C 37.527344 11.851562 38.589844 10.742188 39.917969 10.722656 C 39.945312 10.722656 39.972656 10.722656 40 10.722656 Z M 62.039062 12.371094 L 48.164062 12.371094 L 48.164062 10.722656 C 48.164062 8.898438 46.703125 7.421875 44.898438 7.421875 L 35.101562 7.421875 C 33.296875 7.421875 31.835938 8.898438 31.835938 10.722656 L 31.835938 12.371094 L 17.960938 12.371094 C 16.15625 12.371094 14.695312 13.847656 14.695312 15.671875 L 14.695312 70.101562 C 14.695312 71.925781 16.15625 73.402344 17.960938 73.402344 L 62.039062 73.402344 C 63.84375 73.402344 65.304688 71.925781 65.304688 70.101562 L 65.304688 15.671875 C 65.304688 13.847656 63.84375 12.371094 62.039062 12.371094 Z M 62.039062 12.371094 "/>
<path style=" stroke:none;fill-rule:nonzero;fill:rgb(30.19608%,15.294118%,66.666669%);fill-opacity:1;" d="M 41.632812 28.867188 L 55.511719 28.867188 L 55.511719 32.164062 L 41.632812 32.164062 Z M 41.632812 28.867188 "/>
<path style=" stroke:none;fill-rule:nonzero;fill:rgb(30.19608%,15.294118%,66.666669%);fill-opacity:1;" d="M 41.632812 38.761719 L 55.511719 38.761719 L 55.511719 42.0625 L 41.632812 42.0625 Z M 41.632812 38.761719 "/>
<path style=" stroke:none;fill-rule:nonzero;fill:rgb(30.19608%,15.294118%,66.666669%);fill-opacity:1;" d="M 41.632812 48.660156 L 55.511719 48.660156 L 55.511719 51.957031 L 41.632812 51.957031 Z M 41.632812 48.660156 "/>
<path style=" stroke:none;fill-rule:nonzero;fill:rgb(30.19608%,15.294118%,66.666669%);fill-opacity:1;" d="M 41.632812 58.558594 L 55.511719 58.558594 L 55.511719 61.855469 L 41.632812 61.855469 Z M 41.632812 58.558594 "/>
<path style=" stroke:none;fill-rule:nonzero;fill:rgb(30.19608%,15.294118%,66.666669%);fill-opacity:1;" d="M 26.53125 47.421875 L 32.246094 47.421875 L 32.246094 53.195312 L 26.53125 53.195312 Z M 26.53125 47.421875 "/>
<path style=" stroke:none;fill-rule:nonzero;fill:rgb(30.19608%,15.294118%,66.666669%);fill-opacity:1;" d="M 26.53125 57.320312 L 32.246094 57.320312 L 32.246094 63.09375 L 26.53125 63.09375 Z M 26.53125 57.320312 "/>
<path style=" stroke:none;fill-rule:nonzero;fill:rgb(30.19608%,15.294118%,66.666669%);fill-opacity:1;" d="M 25.066406 30.351562 L 26.777344 28.625 L 28.898438 30.769531 L 34.285156 25.324219 L 35.996094 27.050781 L 28.898438 34.222656 Z M 25.066406 30.351562 "/>
<path style=" stroke:none;fill-rule:nonzero;fill:rgb(30.19608%,15.294118%,66.666669%);fill-opacity:1;" d="M 25.066406 40.246094 L 26.777344 38.519531 L 28.898438 40.664062 L 34.285156 35.222656 L 35.996094 36.949219 L 28.898438 44.117188 Z M 25.066406 40.246094 "/>
</g>
</svg>
