<?xml version="1.0" encoding="UTF-8"?>
<svg xmlns="http://www.w3.org/2000/svg" xmlns:xlink="http://www.w3.org/1999/xlink" width="80" height="80" viewBox="0 0 80 80" version="1.1">
<g id="surface1">
<path style=" stroke:none;fill-rule:nonzero;fill:rgb(30.19608%,15.294118%,66.666669%);fill-opacity:1;" d="M 71.113281 62.539062 L 60.824219 52.273438 C 59.425781 50.882812 57.53125 50.386719 55.71875 50.710938 L 52.09375 47.105469 C 55.304688 43 57.199219 37.742188 57.199219 32.164062 C 57.199219 18.617188 46.085938 7.539062 32.5 7.539062 C 18.914062 7.539062 7.800781 18.617188 7.800781 32.164062 C 7.800781 45.710938 18.914062 56.789062 32.5 56.789062 C 38.101562 56.789062 43.289062 54.90625 47.488281 51.699219 L 51.105469 55.3125 C 50.78125 57.117188 51.273438 59.007812 52.675781 60.40625 L 62.960938 70.664062 C 64.117188 71.8125 65.601562 72.386719 67.082031 72.386719 C 68.5625 72.386719 70.042969 71.8125 71.199219 70.664062 C 73.335938 68.363281 73.335938 64.757812 71.113281 62.539062 Z M 32.417969 51.78125 C 21.550781 51.78125 12.65625 42.917969 12.65625 32.082031 C 12.65625 21.242188 21.550781 12.382812 32.417969 12.382812 C 43.289062 12.382812 52.179688 21.242188 52.179688 32.082031 C 52.179688 42.917969 43.289062 51.78125 32.417969 51.78125 Z M 32.417969 51.78125 "/>
<path style=" stroke:none;fill-rule:nonzero;fill:rgb(30.19608%,15.294118%,66.666669%);fill-opacity:1;" d="M 43.632812 37.773438 C 43.613281 36.925781 43.210938 36.117188 42.539062 35.59375 C 41.039062 34.367188 39.117188 33.550781 37.207031 33.007812 C 35.742188 32.554688 34.226562 32.332031 32.695312 32.324219 C 31.167969 32.351562 29.648438 32.582031 28.179688 33.007812 C 26.269531 33.5625 24.46875 34.4375 22.851562 35.59375 C 22.175781 36.117188 21.773438 36.925781 21.757812 37.773438 L 21.757812 43.230469 L 43.632812 43.230469 Z M 43.632812 37.773438 "/>
<path style=" stroke:none;fill-rule:nonzero;fill:rgb(30.19608%,15.294118%,66.666669%);fill-opacity:1;" d="M 31.667969 24.054688 C 32.554688 23.539062 34.742188 21.855469 34.742188 21.855469 C 35.09375 21.882812 35.417969 22.011719 35.6875 22.230469 C 36.34375 22.695312 36.898438 23.28125 37.324219 23.960938 C 37.699219 24.523438 38.023438 24.980469 38.125 25.117188 L 38.164062 25.167969 C 38.335938 24.824219 38.324219 23.875 38.207031 23.011719 C 38.039062 21.820312 37.90625 21.460938 37.136719 20.820312 C 36.648438 20.382812 36 20.164062 35.34375 20.226562 C 34.457031 19.539062 33.382812 19.125 32.261719 19.03125 C 30.550781 18.96875 28.6875 19.863281 27.894531 20.90625 C 26.695312 22.46875 26.824219 23.492188 26.824219 23.855469 C 26.824219 24.226562 26.40625 24.855469 26.699219 24.855469 C 26.886719 24.855469 27.082031 24.855469 27.269531 24.855469 C 28.355469 24.824219 30.5625 24.707031 31.667969 24.054688 Z M 31.667969 24.054688 "/>
<path style=" stroke:none;fill-rule:nonzero;fill:rgb(30.19608%,15.294118%,66.666669%);fill-opacity:1;" d="M 37.625 25.5625 C 37.605469 25.542969 37.230469 25.019531 36.773438 24.34375 C 36.394531 23.726562 35.898438 23.195312 35.304688 22.78125 C 35.195312 22.699219 35.070312 22.632812 34.929688 22.574219 C 34.324219 23.039062 32.761719 24.207031 32.011719 24.644531 C 30.832031 25.324219 28.675781 25.507812 27.230469 25.539062 C 27.269531 28.542969 29.742188 30.957031 32.761719 30.917969 C 35.460938 30.886719 37.730469 28.894531 38.113281 26.230469 Z M 37.625 25.5625 "/>
</g>
</svg>
