<svg width="97" height="97" xmlns="http://www.w3.org/2000/svg" xmlns:xlink="http://www.w3.org/1999/xlink" xml:space="preserve" overflow="hidden"><defs><clipPath id="clip0"><rect x="492" y="249" width="97" height="97"/></clipPath><clipPath id="clip1"><rect x="493" y="250" width="96" height="96"/></clipPath><clipPath id="clip2"><rect x="493" y="250" width="96" height="96"/></clipPath><clipPath id="clip3"><rect x="493" y="250" width="96" height="96"/></clipPath></defs><g clip-path="url(#clip0)" transform="translate(-492 -249)"><g clip-path="url(#clip1)"><g clip-path="url(#clip2)"><g clip-path="url(#clip3)"><path d="M568 284 562 284 562 276 568 276 568 284ZM568 320 562 320 562 312 568 312 568 320ZM559 306C557.3 306 556 304.7 556 303L556 299C554.8 298.1 554 296.7 554 295 554 292.2 556.2 290 559 290 561.8 290 564 292.2 564 295 564 296.6 563.2 298.1 562 299L562 303C562 304.7 560.7 306 559 306ZM556 320 550 320 550 312 556 312 556 320ZM544 320 538 320 538 276 544 276 544 320ZM532 320 526 320 526 276 532 276 532 320ZM520 320 514 320 514 276 520 276 520 320ZM550 276 556 276 556 284 550 284 550 276ZM581 276 581 270 501 270 501 276 508 276 508 320 501 320 501 326 581 326 581 320 574 320 574 276 581 276Z" fill="#4D27AA" fill-rule="nonzero" fill-opacity="1"/></g></g></g></g></svg>