<?xml version="1.0" encoding="UTF-8"?>
<svg xmlns="http://www.w3.org/2000/svg" xmlns:xlink="http://www.w3.org/1999/xlink" width="80" height="80" viewBox="0 0 80 80" version="1.1">
<g id="surface1">
<path style=" stroke:none;fill-rule:nonzero;fill:rgb(30.19608%,15.294118%,66.666669%);fill-opacity:1;" d="M 20.617188 62.039062 C 20.617188 59.335938 18.402344 57.144531 15.671875 57.144531 C 12.9375 57.144531 10.722656 59.335938 10.722656 62.039062 C 10.722656 64.746094 12.9375 66.9375 15.671875 66.9375 C 18.402344 66.9375 20.617188 64.746094 20.617188 62.039062 Z M 12.371094 62.039062 C 12.371094 60.238281 13.847656 58.777344 15.671875 58.777344 C 17.492188 58.777344 18.96875 60.238281 18.96875 62.039062 C 18.96875 63.84375 17.492188 65.304688 15.671875 65.304688 C 13.847656 65.304688 12.371094 63.84375 12.371094 62.039062 Z M 12.371094 62.039062 "/>
<path style=" stroke:none;fill-rule:nonzero;fill:rgb(30.19608%,15.294118%,66.666669%);fill-opacity:1;" d="M 45.359375 62.039062 C 45.359375 59.335938 43.144531 57.144531 40.414062 57.144531 C 37.679688 57.144531 35.464844 59.335938 35.464844 62.039062 C 35.464844 64.746094 37.679688 66.9375 40.414062 66.9375 C 43.144531 66.9375 45.359375 64.746094 45.359375 62.039062 Z M 37.113281 62.039062 C 37.113281 60.238281 38.589844 58.777344 40.414062 58.777344 C 42.234375 58.777344 43.710938 60.238281 43.710938 62.039062 C 43.710938 63.84375 42.234375 65.304688 40.414062 65.304688 C 38.589844 65.304688 37.113281 63.84375 37.113281 62.039062 Z M 37.113281 62.039062 "/>
<path style=" stroke:none;fill-rule:nonzero;fill:rgb(30.19608%,15.294118%,66.666669%);fill-opacity:1;" d="M 65.15625 57.144531 C 62.421875 57.144531 60.207031 59.335938 60.207031 62.039062 C 60.207031 64.746094 62.421875 66.9375 65.15625 66.9375 C 67.886719 66.9375 70.101562 64.746094 70.101562 62.039062 C 70.101562 59.335938 67.886719 57.144531 65.15625 57.144531 Z M 65.15625 65.304688 C 63.332031 65.304688 61.855469 63.84375 61.855469 62.039062 C 61.855469 60.238281 63.332031 58.777344 65.15625 58.777344 C 66.976562 58.777344 68.453125 60.238281 68.453125 62.039062 C 68.453125 63.84375 66.976562 65.304688 65.15625 65.304688 Z M 65.15625 65.304688 "/>
<path style=" stroke:none;fill-rule:nonzero;fill:rgb(30.19608%,15.294118%,66.666669%);fill-opacity:1;" d="M 26.390625 25.304688 L 54.433594 25.304688 L 54.433594 13.878906 L 26.390625 13.878906 Z M 28.042969 15.511719 L 52.785156 15.511719 L 52.785156 23.671875 L 28.042969 23.671875 Z M 28.042969 15.511719 "/>
<path style=" stroke:none;fill-rule:nonzero;fill:rgb(30.19608%,15.294118%,66.666669%);fill-opacity:1;" d="M 65.980469 54.695312 L 65.980469 40.816406 L 46.527344 40.816406 L 41.238281 35.582031 L 41.238281 27.753906 L 39.585938 27.753906 L 39.585938 35.582031 L 34.296875 40.816406 L 14.84375 40.816406 L 14.84375 54.695312 L 16.496094 54.695312 L 16.496094 42.449219 L 34.296875 42.449219 L 39.585938 47.683594 L 39.585938 54.695312 L 41.238281 54.695312 L 41.238281 47.683594 L 46.527344 42.449219 L 64.328125 42.449219 L 64.328125 54.695312 Z M 40.414062 46.191406 L 35.804688 41.632812 L 40.414062 37.074219 L 45.019531 41.632812 Z M 40.414062 46.191406 "/>
</g>
</svg>
