<svg width="98" height="96" xmlns="http://www.w3.org/2000/svg" xmlns:xlink="http://www.w3.org/1999/xlink" xml:space="preserve" overflow="hidden"><defs><clipPath id="clip0"><rect x="486" y="356" width="98" height="96"/></clipPath><clipPath id="clip1"><rect x="487" y="356" width="96" height="96"/></clipPath><clipPath id="clip2"><rect x="487" y="356" width="96" height="96"/></clipPath><clipPath id="clip3"><rect x="487" y="356" width="96" height="96"/></clipPath></defs><g clip-path="url(#clip0)" transform="translate(-486 -356)"><g clip-path="url(#clip1)"><g clip-path="url(#clip2)"><g clip-path="url(#clip3)"><path d="M537 425.2 537 430.5 533 430.5 533 425.2C530.7 424.4 529 422.2 529 419.5 529 416.2 531.7 413.5 535 413.5 538.3 413.5 541 416.2 541 419.5 541 422.1 539.3 424.3 537 425.2ZM520 388.5C520 380.2 526.7 373.5 535 373.5 543.3 373.5 550 380.2 550 388.5L550 399.6 535 398.5 520 399.6 520 388.5ZM556 400 556 388.5C556 376.9 546.6 367.5 535 367.5 523.4 367.5 514 376.9 514 388.5L514 400 507 400.5 507 438.5 535 440.5 563 438.5 563 400.5 556 400Z" fill="#4D27AA" fill-rule="nonzero" fill-opacity="1"/></g></g></g></g></svg>