<?xml version="1.0" encoding="UTF-8"?>
<svg xmlns="http://www.w3.org/2000/svg" xmlns:xlink="http://www.w3.org/1999/xlink" width="80" height="80" viewBox="0 0 80 80" version="1.1">
<g id="surface1">
<path style=" stroke:none;fill-rule:nonzero;fill:rgb(30.19608%,15.294118%,66.666669%);fill-opacity:1;" d="M 67.628906 60.882812 C 67.628906 65.484375 63.9375 69.214844 59.382812 69.214844 C 54.828125 69.214844 51.132812 65.484375 51.132812 60.882812 C 51.132812 56.28125 54.828125 52.550781 59.382812 52.550781 C 63.9375 52.550781 67.628906 56.28125 67.628906 60.882812 Z M 67.628906 60.882812 "/>
<path style=" stroke:none;fill-rule:nonzero;fill:rgb(30.19608%,15.294118%,66.666669%);fill-opacity:1;" d="M 28.867188 20.050781 C 28.867188 24.652344 25.171875 28.382812 20.617188 28.382812 C 16.0625 28.382812 12.371094 24.652344 12.371094 20.050781 C 12.371094 15.449219 16.0625 11.714844 20.617188 11.714844 C 25.171875 11.714844 28.867188 15.449219 28.867188 20.050781 Z M 28.867188 20.050781 "/>
<path style=" stroke:none;fill-rule:nonzero;fill:rgb(30.19608%,15.294118%,66.666669%);fill-opacity:1;" d="M 59.382812 29.199219 L 50.316406 20.042969 L 59.382812 11.183594 L 68.445312 20.042969 Z M 59.382812 29.199219 "/>
<path style=" stroke:none;fill-rule:nonzero;fill:rgb(30.19608%,15.294118%,66.666669%);fill-opacity:1;" d="M 12.371094 52.5 L 28.867188 52.5 L 28.867188 69.167969 L 12.371094 69.167969 Z M 12.371094 52.5 "/>
<path style=" stroke:none;fill-rule:nonzero;fill:rgb(30.19608%,15.294118%,66.666669%);fill-opacity:1;" d="M 47.726562 59.214844 L 35.464844 59.214844 L 37.113281 57.550781 C 37.679688 56.980469 37.679688 56.054688 37.113281 55.484375 C 36.546875 54.914062 35.632812 54.914062 35.066406 55.484375 L 30.738281 59.859375 C 30.472656 60.136719 30.320312 60.503906 30.316406 60.890625 C 30.320312 61.277344 30.46875 61.648438 30.738281 61.925781 L 35.066406 66.300781 C 35.636719 66.871094 36.550781 66.871094 37.117188 66.296875 C 37.683594 65.722656 37.679688 64.796875 37.113281 64.226562 L 35.464844 62.558594 L 47.726562 62.558594 Z M 47.726562 59.214844 "/>
<path style=" stroke:none;fill-rule:nonzero;fill:rgb(30.19608%,15.294118%,66.666669%);fill-opacity:1;" d="M 48.289062 18.976562 L 43.957031 14.601562 C 43.394531 14.03125 42.480469 14.035156 41.917969 14.605469 C 41.355469 15.175781 41.355469 16.097656 41.921875 16.667969 L 43.570312 18.332031 L 32.164062 18.332031 L 32.164062 21.667969 L 43.578125 21.667969 L 41.929688 23.332031 C 41.359375 23.898438 41.351562 24.824219 41.914062 25.398438 C 42.472656 25.976562 43.390625 25.984375 43.957031 25.417969 L 48.289062 21.042969 C 48.851562 20.46875 48.851562 19.546875 48.289062 18.976562 Z M 48.289062 18.976562 "/>
<path style=" stroke:none;fill-rule:nonzero;fill:rgb(30.19608%,15.294118%,66.666669%);fill-opacity:1;" d="M 64.757812 44.050781 C 64.191406 43.484375 63.277344 43.484375 62.714844 44.050781 L 61.0625 45.714844 L 61.0625 32.5 L 57.730469 32.5 L 57.730469 45.734375 L 56.082031 44.066406 C 55.515625 43.5 54.605469 43.5 54.042969 44.070312 C 53.480469 44.640625 53.480469 45.566406 54.046875 46.132812 L 58.367188 50.507812 C 58.933594 51.074219 59.847656 51.074219 60.414062 50.507812 L 64.742188 46.132812 C 65.316406 45.566406 65.328125 44.640625 64.769531 44.058594 C 64.765625 44.054688 64.761719 44.054688 64.757812 44.050781 Z M 64.757812 44.050781 "/>
</g>
</svg>
