<?xml version="1.0" encoding="UTF-8"?>
<svg xmlns="http://www.w3.org/2000/svg" xmlns:xlink="http://www.w3.org/1999/xlink" width="80" height="80" viewBox="0 0 80 80" version="1.1">
<g id="surface1">
<path style=" stroke:none;fill-rule:nonzero;fill:rgb(30.19608%,15.294118%,66.666669%);fill-opacity:1;" d="M 28.230469 20.894531 L 33.171875 20.894531 L 33.171875 33.207031 L 28.230469 33.207031 Z M 28.230469 20.894531 "/>
<path style=" stroke:none;fill-rule:nonzero;fill:rgb(30.19608%,15.294118%,66.666669%);fill-opacity:1;" d="M 54.578125 36.492188 L 24.9375 36.492188 L 24.9375 17.613281 L 54.578125 17.613281 Z M 39.761719 57.835938 C 35.230469 57.835938 31.527344 54.140625 31.527344 49.625 C 31.527344 45.113281 35.230469 41.417969 39.761719 41.417969 C 44.289062 41.417969 47.992188 45.113281 47.992188 49.625 C 47.992188 54.140625 44.289062 57.835938 39.761719 57.835938 Z M 64.460938 12.683594 L 20 12.683594 L 11.765625 20.894531 L 11.765625 65.222656 C 11.765625 67.03125 13.246094 68.507812 15.058594 68.507812 L 64.460938 68.507812 C 66.273438 68.507812 67.753906 67.03125 67.753906 65.222656 L 67.753906 15.96875 C 67.753906 14.164062 66.273438 12.683594 64.460938 12.683594 Z M 64.460938 12.683594 "/>
<path style=" stroke:none;fill-rule:nonzero;fill:rgb(30.19608%,15.294118%,66.666669%);fill-opacity:1;" d="M 37.292969 47.164062 L 42.230469 47.164062 L 42.230469 52.089844 L 37.292969 52.089844 Z M 37.292969 47.164062 "/>
<path style=" stroke:none;fill-rule:nonzero;fill:rgb(100%,75.294119%,0%);fill-opacity:1;" d="M 62.730469 68.683594 L 62.730469 70.214844 L 61.582031 70.214844 L 61.582031 68.683594 C 60.921875 68.453125 60.433594 67.820312 60.433594 67.039062 C 60.433594 66.085938 61.207031 65.308594 62.15625 65.308594 C 63.101562 65.308594 63.878906 66.085938 63.878906 67.039062 C 63.878906 67.789062 63.390625 68.425781 62.730469 68.683594 Z M 57.851562 58.09375 C 57.851562 55.699219 59.773438 53.765625 62.15625 53.765625 C 64.539062 53.765625 66.460938 55.699219 66.460938 58.09375 L 66.460938 61.296875 L 62.15625 60.980469 L 57.851562 61.296875 Z M 68.179688 61.414062 L 68.179688 58.09375 C 68.179688 54.746094 65.484375 52.035156 62.15625 52.035156 C 58.828125 52.035156 56.128906 54.746094 56.128906 58.09375 L 56.128906 61.414062 L 54.121094 61.558594 L 54.121094 72.523438 L 62.15625 73.101562 L 70.191406 72.523438 L 70.191406 61.558594 Z M 68.179688 61.414062 "/>
</g>
</svg>
