<?xml version="1.0" encoding="UTF-8"?>
<svg xmlns="http://www.w3.org/2000/svg" xmlns:xlink="http://www.w3.org/1999/xlink" width="80" height="80" viewBox="0 0 80 80" version="1.1">
<g id="surface1">
<path style=" stroke:none;fill-rule:nonzero;fill:rgb(30.19608%,15.294118%,66.666669%);fill-opacity:1;" d="M 40 47.011719 C 36.316406 47.011719 33.332031 44.054688 33.332031 40.414062 C 33.332031 36.769531 36.316406 33.8125 40 33.8125 C 43.683594 33.8125 46.667969 36.769531 46.667969 40.414062 C 46.667969 44.054688 43.683594 47.011719 40 47.011719 Z M 40 37.113281 C 38.160156 37.113281 36.667969 38.589844 36.667969 40.414062 C 36.667969 42.234375 38.160156 43.710938 40 43.710938 C 41.839844 43.710938 43.332031 42.234375 43.332031 40.414062 C 43.332031 38.589844 41.839844 37.113281 40 37.113281 Z M 40 37.113281 "/>
<path style=" stroke:none;fill-rule:nonzero;fill:rgb(30.19608%,15.294118%,66.666669%);fill-opacity:1;" d="M 69.167969 38.761719 C 68.292969 24.105469 56.476562 12.410156 41.667969 11.546875 L 41.667969 6.597656 L 38.332031 6.597656 L 38.332031 11.546875 C 23.523438 12.410156 11.707031 24.105469 10.832031 38.761719 L 5.832031 38.761719 L 5.832031 42.0625 L 10.832031 42.0625 C 11.707031 56.71875 23.523438 68.414062 38.332031 69.277344 L 38.332031 74.226562 L 41.667969 74.226562 L 41.667969 69.277344 C 56.476562 68.414062 68.292969 56.71875 69.167969 42.0625 L 74.167969 42.0625 L 74.167969 38.761719 Z M 56.800781 42.0625 C 56 49.980469 49.667969 56.246094 41.667969 57.039062 L 41.667969 50.308594 L 38.332031 50.308594 L 38.332031 57.039062 C 30.332031 56.246094 24 49.980469 23.199219 42.0625 L 30 42.0625 L 30 38.761719 L 23.199219 38.761719 C 24 30.84375 30.332031 24.578125 38.332031 23.785156 L 38.332031 30.515625 L 41.667969 30.515625 L 41.667969 23.785156 C 49.667969 24.578125 56 30.84375 56.800781 38.761719 L 50 38.761719 L 50 42.0625 Z M 38.332031 16.496094 L 38.332031 20.476562 C 28.492188 21.296875 20.679688 29.023438 19.851562 38.761719 L 15.832031 38.761719 C 16.691406 26.832031 26.28125 17.34375 38.332031 16.496094 Z M 15.832031 42.0625 L 19.859375 42.0625 C 20.683594 51.804688 28.492188 59.53125 38.332031 60.355469 L 38.332031 64.328125 C 26.28125 63.480469 16.691406 53.992188 15.832031 42.0625 Z M 41.667969 64.328125 L 41.667969 60.355469 C 51.511719 59.535156 59.324219 51.804688 60.148438 42.0625 L 64.167969 42.0625 C 63.308594 53.992188 53.71875 63.480469 41.667969 64.328125 Z M 60.148438 38.761719 C 59.324219 29.019531 51.511719 21.289062 41.667969 20.46875 L 41.667969 16.496094 C 53.71875 17.34375 63.308594 26.832031 64.167969 38.761719 Z M 60.148438 38.761719 "/>
</g>
</svg>
